<?xml version="1.0" encoding="utf-8"?>
<!-- Generator: Adobe Illustrator 27.5.0, SVG Export Plug-In . SVG Version: 6.00 Build 0)  -->
<svg version="1.1" xmlns="http://www.w3.org/2000/svg" xmlns:xlink="http://www.w3.org/1999/xlink" x="0px" y="0px"
	 viewBox="0 0 750 500" style="enable-background:new 0 0 750 500;" xml:space="preserve">
<g id="BACKGROUND">
	<rect x="0.29" style="fill:#003C34;" width="750" height="500"/>
</g>
<g id="OBJECTS">
	<g>
		<defs>
			<rect id="SVGID_1_" x="0.29" width="750" height="500"/>
		</defs>
		<clipPath id="SVGID_00000130612837528932017290000010733861731999691431_">
			<use xlink:href="#SVGID_1_"  style="overflow:visible;"/>
		</clipPath>
		<g style="clip-path:url(#SVGID_00000130612837528932017290000010733861731999691431_);">
			<path style="fill:#E5A576;" d="M265.248,476.753c27.629-0.109,52.233,18.314,79.71,21.211c8.894,0.938,17.937,0.21,26.638-1.859
				c10.676-2.538,20.848-7.087,29.994-13.15c9.379-6.217,17.63-13.96,26.421-20.984c44.192-35.314,105.85-51.608,159.172-32.719
				c20.193,7.153,38.426,18.875,55.973,31.163c15.63,10.945,31.058,22.586,43.084,37.4c12.027,14.814,20.496,33.24,20.201,52.319
				c-37.036,9.532-74.071,19.065-111.107,28.597c-36.214,9.321-72.504,18.657-109.477,24.255
				c-28.987,4.388-58.278,6.459-87.563,7.835c-26.527,1.246-53.21,1.919-79.549-1.469c-20.055-2.58-39.727-7.491-59.345-12.392
				c-12.584-3.144-25.632-6.516-35.62-14.791C181.551,547.185,214.029,476.955,265.248,476.753z"/>
			<path style="fill:#FFE5C5;" d="M208.682,482.467c-13.119-9.494-24.143-21.664-37.386-30.984
				c-13.243-9.321-29.958-15.741-45.584-11.489c-6.399,1.742-12.194,5.157-18.287,7.774c-22.424,9.632-49.43,7.803-70.35-4.766
				c-12.231-7.348-22.362-18.035-35.234-24.192c-27.353-13.085-59.624-2.998-88.176,7.211c-11.247,4.021-22.494,8.043-33.742,12.064
				c-4.765,1.704-9.82,3.618-12.801,7.707c-2.764,3.792-3.215,8.74-3.571,13.419c-0.793,10.435-1.571,21.075,0.902,31.243
				c2.474,10.168,8.786,19.971,18.47,23.936c5.613,2.298,11.834,2.475,17.897,2.621c120.484,2.896,247.015,10.125,366.019-12.958
				C245.953,502.161,225.694,494.779,208.682,482.467z"/>
			<path style="fill:#FFE5C5;" d="M824.417,332.075c-28.925-20.185-71.028-12.018-97.477,11.318
				c-5.99,5.285-11.453,11.345-14.956,18.524c-7.174,14.704-5.325,31.956-4.575,48.3c0.75,16.344-0.421,34.414-11.737,46.23
				c-11.678,12.194-30.393,13.835-47.272,13.447c-29.066-0.669-58.061-5.062-87.101-3.657c-29.04,1.405-59.155,9.43-79.923,29.777
				c-8.765,8.587-15.737,19.579-17.146,31.768c-0.257,2.221-0.3,4.591,0.775,6.551c1.922,3.506,6.493,4.351,10.467,4.787
				c83.853,9.205,168.489,7.04,252.818,4.863c38.368-0.99,76.737-1.981,115.089-3.464c20.482-0.792,41.096-1.742,61.068-6.355
				c2.935-0.678,5.98-1.501,8.202-3.535c2.747-2.516,3.717-6.39,4.406-10.051c5.105-27.121,2.06-55.21-4.237-82.078
				c-4.908-20.938-11.928-41.72-24.165-59.404c-12.237-17.684-30.211-32.11-51.225-36.677"/>
		</g>
		<g style="clip-path:url(#SVGID_00000130612837528932017290000010733861731999691431_);">
			<path style="fill:#F4CB1C;" d="M221.791,251.546c-3.334-4.881-8.487-3.979-12.949-4.571c-4.076-0.541-8.006-1.165-12.055-1.409
				c0.107-0.723,0.182-1.451,0.242-2.179c0.256-3.109,0.327-6.232,0.214-9.349c-0.015-0.401-0.025-0.829,0.186-1.169
				c0.122-0.197,0.307-0.344,0.474-0.505c1.319-1.274,1.319-3.702-0.089-4.877c-1.408-1.175-3.916-0.634-4.601,1.067
				c-0.488,1.212,0.001,2.713,1.056,3.483c0.367,0.268,0.819,0.49,0.979,0.915c0.11,0.292,0.053,0.617-0.002,0.925
				c-0.59,3.259-0.913,6.566-0.965,9.877c-0.006,0.402-0.089,1.063-0.098,1.719c-0.363-0.005-0.725-0.016-1.091-0.014
				c-0.169,0.001-0.339,0.004-0.509,0.007c0.005-0.166,0.001-0.328-0.016-0.473c-0.096-0.804-0.241-1.602-0.399-2.396
				c-0.606-3.059-1.394-6.083-2.357-9.05c-0.124-0.381-0.251-0.79-0.141-1.175c0.064-0.223,0.201-0.415,0.317-0.616
				c0.919-1.587,0.254-3.922-1.422-4.666c-1.676-0.744-3.939,0.464-4.133,2.287c-0.137,1.299,0.744,2.609,1.971,3.061
				c0.426,0.157,0.923,0.247,1.193,0.612c0.186,0.251,0.22,0.579,0.251,0.89c0.326,3.296,0.922,6.564,1.779,9.763
				c0.117,0.438,0.23,1.217,0.444,1.918c-1.086,0.141-2.151,0.408-3.153,0.927c-3.907,2.027-5.823,8.177-4.67,13.28
				c-0.394,16.079-3.19,84.909-5.871,95.875c-1.317,5.385-3.055,10.693-4.49,16.053c-7.717-0.045-15.529-1.078-22.999-2.719
				c-10.195-2.24-21.027-5.837-30.726-1.978c-10.471,4.166-18.313,18.049-16.992,42.538c0.011,0.209,0.022,0.392,0.034,0.564
				c-0.768,13.964-1.359,30.319-2.404,39.922c-0.422,3.876-0.843,7.756-0.981,11.652c-0.088,2.482-0.014,5.133,1.372,7.195
				c1.386,2.061,4.55,3.096,6.419,1.46c1.594-1.395,1.785-10.097,2.213-12.345c0.783-4.107,1.611-8.205,2.484-12.294
				c1.822-8.533,3.841-17.024,6.053-25.464c0.111-0.422,0.255-0.889,0.413-1.377c2.812,0.42,5.712,0.717,8.403,1.303
				c-0.368,9.37-0.742,18.74-1.087,28.111c-0.144,3.896-0.285,7.796-0.144,11.692c0.09,2.482,0.354,5.121,1.883,7.078
				c1.53,1.957,4.76,2.763,6.507,0.997c1.49-1.506,1.057-10.199,1.324-12.472c0.487-4.152,1.019-8.299,1.598-12.44
				c0.944-6.76,2.014-13.503,3.2-20.225c7.573,1.063,15.266,1.263,22.884,0.596c0.164,10.463,0.326,20.926,0.518,31.388
				c0.071,3.898,0.145,7.8,0.5,11.683c0.226,2.473,0.635,5.094,2.271,6.963c1.635,1.869,4.905,2.496,6.552,0.637
				c1.404-1.586,0.493-10.242,0.634-12.526c0.257-4.173,0.56-8.343,0.91-12.509c0.729-8.695,1.657-17.373,2.784-26.025
				c0.076-0.585,0.199-1.253,0.343-1.965c0.198-0.047,0.398-0.088,0.595-0.136c0.826-0.203,1.652-0.427,2.476-0.663
				c0.921,10.528,1.841,21.056,2.791,31.581c0.35,3.883,0.703,7.77,1.335,11.617c0.403,2.451,0.998,5.035,2.763,6.783
				c1.765,1.747,5.072,2.139,6.581,0.166c1.288-1.682-0.241-10.251-0.264-12.539c-0.042-4.181-0.038-8.362,0.012-12.542
				c0.104-8.725,0.409-17.447,0.914-26.158c0.292-5.028,3.043-11.925,4.045-23.124c0.02-0.215,0.042-0.431,0.06-0.646
				c0.014-0.165,0.025-0.334,0.038-0.501c0.112-1.431,0.193-2.858,0.258-4.262c0.014-0.053,0.026-0.121,0.036-0.221
				c1.11-11.206-0.315-35.047-0.482-46.294c-0.359-24.155,1.67-48.282,2.674-72.424c1.503,0.247,3.014,0.423,4.519,0.537
				c3.472,0.263,7.006,0.252,10.318-0.954c3.312-1.206,6.412-3.737,8.044-7.544C224.199,260.065,224.088,254.908,221.791,251.546z"
				/>
			<g>
				<circle style="fill:#003C34;" cx="202.236" cy="256.109" r="2.28"/>
				<g>
					<path style="fill:#F4CB1C;" d="M186.844,240.916c-0.319-0.865-0.715-1.748-1.439-2.319c-0.724-0.571-1.863-0.714-2.536-0.084
						c-0.51,0.477-0.62,1.234-0.671,1.931c-0.21,2.895,0.101,5.827,0.916,8.613c0.912,3.119,3.967,2.695,4.962-0.227
						C188.876,246.483,187.656,243.115,186.844,240.916z"/>
					<path style="fill:#C14627;" d="M186.04,242.439c-0.16-0.432-0.358-0.874-0.719-1.16c-0.362-0.285-0.932-0.357-1.268-0.042
						c-0.255,0.239-0.31,0.617-0.335,0.965c-0.105,1.447,0.051,2.913,0.458,4.307c0.456,1.56,1.983,1.348,2.481-0.114
						C187.056,245.223,186.446,243.539,186.04,242.439z"/>
				</g>
				<g>
					<path style="fill:#F4CB1C;" d="M205.262,238.766c-0.027-0.921-0.12-1.885-0.624-2.657c-0.504-0.772-1.538-1.271-2.377-0.888
						c-0.635,0.29-0.981,0.972-1.252,1.616c-1.123,2.676-1.762,5.555-1.879,8.455c-0.13,3.247,2.9,3.82,4.776,1.367
						C205.411,244.69,205.33,241.109,205.262,238.766z"/>
					<path style="fill:#C14627;" d="M204.014,239.953c-0.013-0.461-0.06-0.943-0.312-1.329c-0.252-0.386-0.769-0.635-1.188-0.444
						c-0.318,0.145-0.491,0.486-0.626,0.808c-0.561,1.338-0.881,2.777-0.939,4.228c-0.065,1.624,1.45,1.91,2.388,0.684
						C204.088,242.915,204.048,241.125,204.014,239.953z"/>
				</g>
				<path style="fill:#C14627;" d="M120.043,375.862c-0.477,0.517-0.828,1.15-1.013,1.829c-0.575,2.101,0.511,4.387,2.176,5.792
					c1.665,1.405,3.811,2.09,5.924,2.619c0.911,0.229,1.891,0.431,2.772,0.107c1.15-0.424,1.804-1.612,2.32-2.724
					c0.879-1.895,1.645-4.125,0.747-6.011c-0.797-1.672-3.118-3.071-4.922-3.255C126.699,374.082,120.957,374.871,120.043,375.862z"
					/>
				<path style="fill:#C14627;" d="M134.52,407.532c0.358,0.33,0.797,0.573,1.267,0.702c1.456,0.399,3.039-0.354,4.013-1.508
					c0.973-1.154,1.448-2.64,1.815-4.104c0.158-0.631,0.299-1.31,0.074-1.921c-0.294-0.796-1.117-1.25-1.887-1.607
					c-1.313-0.609-2.858-1.14-4.164-0.517c-1.158,0.552-2.127,2.16-2.255,3.41C133.287,402.921,133.834,406.899,134.52,407.532z"/>
				<path style="fill:#C14627;" d="M159.243,388.137c-0.309,0.335-0.536,0.744-0.656,1.184c-0.372,1.36,0.331,2.839,1.408,3.749
					c1.078,0.909,2.466,1.352,3.834,1.695c0.59,0.148,1.224,0.279,1.794,0.069c0.744-0.274,1.168-1.043,1.501-1.763
					c0.569-1.226,1.065-2.67,0.483-3.89c-0.515-1.082-2.018-1.987-3.186-2.106C163.551,386.986,159.834,387.496,159.243,388.137z"/>
				<path style="fill:#003C34;" d="M178.786,383.507c-0.17-0.423-0.442-0.804-0.787-1.101c-1.068-0.921-2.706-0.922-3.99-0.341
					c-1.284,0.582-2.282,1.645-3.179,2.732c-0.387,0.469-0.778,0.985-0.834,1.59c-0.072,0.79,0.44,1.503,0.946,2.113
					c0.863,1.041,1.952,2.109,3.304,2.109c1.199,0,2.662-0.967,3.271-1.97C177.974,387.891,179.111,384.317,178.786,383.507z"/>
				<path style="fill:#003C34;" d="M131.247,390.433c0.164-0.02,0.34-0.034,0.485,0.045c0.124,0.068,0.205,0.194,0.27,0.32
					c0.425,0.829,0.363,1.812,0.291,2.741c-0.068,0.872-0.138,1.756-0.434,2.579c-0.296,0.823-0.852,1.591-1.65,1.948
					c-0.892,0.399-1.939,0.23-2.857-0.106c-1.394-0.511-3.431-1.868-3.539-3.548c-0.089-1.382,3.107-2.722,4.185-3.151
					C129.04,390.847,130.134,390.566,131.247,390.433z"/>
				<path style="fill:#003C34;" d="M140.417,376.009c0.092-0.011,0.191-0.019,0.273,0.026c0.07,0.038,0.115,0.109,0.152,0.18
					c0.239,0.466,0.204,1.019,0.164,1.54c-0.038,0.49-0.077,0.987-0.244,1.45c-0.166,0.463-0.479,0.894-0.927,1.095
					c-0.501,0.224-1.09,0.129-1.606-0.06c-0.784-0.287-1.929-1.05-1.989-1.994c-0.05-0.777,1.746-1.53,2.352-1.771
					C139.176,376.242,139.792,376.084,140.417,376.009z"/>
				<path style="fill:#003C34;" d="M157.705,395.046c0.092-0.011,0.191-0.019,0.273,0.025c0.07,0.038,0.115,0.109,0.152,0.18
					c0.239,0.466,0.204,1.019,0.163,1.541c-0.038,0.49-0.077,0.987-0.244,1.449c-0.166,0.462-0.479,0.894-0.927,1.095
					c-0.501,0.225-1.09,0.13-1.606-0.059c-0.784-0.287-1.929-1.05-1.989-1.994c-0.05-0.777,1.746-1.53,2.352-1.771
					C156.464,395.279,157.079,395.12,157.705,395.046z"/>
				<path style="fill:#C14627;" d="M183.12,377.244c0.092-0.011,0.191-0.019,0.273,0.025c0.07,0.038,0.115,0.109,0.152,0.18
					c0.239,0.466,0.204,1.019,0.164,1.54c-0.038,0.49-0.078,0.987-0.244,1.45c-0.166,0.463-0.479,0.894-0.927,1.095
					c-0.502,0.224-1.09,0.129-1.606-0.06c-0.784-0.287-1.929-1.05-1.989-1.994c-0.05-0.777,1.746-1.53,2.352-1.771
					C181.879,377.477,182.494,377.318,183.12,377.244z"/>
				<path style="fill:#C14627;" d="M180.42,390.471c0.137-0.016,0.285-0.028,0.406,0.038c0.104,0.057,0.172,0.162,0.226,0.268
					c0.355,0.694,0.304,1.517,0.243,2.294c-0.057,0.729-0.115,1.47-0.363,2.158c-0.248,0.689-0.712,1.331-1.38,1.63
					c-0.747,0.334-1.623,0.193-2.391-0.089c-1.167-0.428-2.872-1.563-2.962-2.969c-0.074-1.156,2.6-2.278,3.502-2.637
					C178.573,390.817,179.489,390.582,180.42,390.471z"/>
				<path style="fill:#C14627;" d="M151.703,373.567c0.137-0.016,0.285-0.028,0.406,0.038c0.104,0.057,0.172,0.162,0.226,0.268
					c0.355,0.694,0.304,1.517,0.243,2.294c-0.057,0.73-0.115,1.47-0.363,2.158c-0.248,0.689-0.713,1.331-1.381,1.63
					c-0.747,0.334-1.623,0.193-2.391-0.089c-1.167-0.428-2.872-1.563-2.962-2.969c-0.074-1.156,2.6-2.278,3.502-2.637
					C149.856,373.914,150.772,373.678,151.703,373.567z"/>
				<path style="fill:#003C34;" d="M122.094,389.571c0.026,0.029,0.052,0.06,0.057,0.099c0.004,0.033-0.009,0.065-0.025,0.095
					c-0.101,0.193-0.297,0.314-0.484,0.426c-0.175,0.105-0.354,0.211-0.551,0.265c-0.197,0.055-0.419,0.052-0.595-0.052
					c-0.197-0.116-0.306-0.339-0.365-0.559c-0.091-0.335-0.107-0.907,0.199-1.154c0.252-0.203,0.939,0.225,1.166,0.373
					C121.717,389.206,121.919,389.376,122.094,389.571z"/>
				<path style="fill:#003C34;" d="M110.005,378.02c0.032-0.035,0.067-0.071,0.114-0.081c0.04-0.009,0.081,0.003,0.118,0.019
					c0.248,0.1,0.419,0.324,0.577,0.539c0.149,0.201,0.3,0.406,0.39,0.64c0.09,0.234,0.114,0.504,0.009,0.731
					c-0.118,0.254-0.376,0.414-0.638,0.513c-0.398,0.151-1.093,0.24-1.432-0.104c-0.278-0.283,0.162-1.172,0.314-1.468
					C109.605,378.524,109.789,378.257,110.005,378.02z"/>
				<path style="fill:#003C34;" d="M141.795,381.969c1.831-1.148,4.244-1.307,6.211-0.409c1.08,0.493,2.006,1.27,2.842,2.112
					c0.954,0.962,1.83,2.055,2.234,3.348c0.307,0.982,0.327,2.035,0.217,3.058c-0.24,2.224-1.176,4.485-3.002,5.778
					c-0.851,0.602-1.852,0.966-2.872,1.179c-1.6,0.333-3.295,0.302-4.839-0.236c-1.544-0.538-2.925-1.602-3.714-3.035
					c-0.343-0.623-0.571-1.303-0.75-1.991c-0.28-1.081-0.425-2.228-0.18-3.33c0.152-0.682,0.535-1.24,0.781-1.884
					C139.436,384.702,140.009,383.089,141.795,381.969z"/>
				<path style="fill:#C14627;" d="M112.671,381.731c0.639-0.401,1.481-0.456,2.167-0.143c0.377,0.172,0.7,0.443,0.992,0.737
					c0.333,0.336,0.638,0.717,0.78,1.168c0.107,0.343,0.114,0.71,0.076,1.067c-0.084,0.776-0.41,1.565-1.048,2.017
					c-0.297,0.21-0.646,0.337-1.002,0.411c-0.559,0.116-1.15,0.105-1.689-0.082c-0.539-0.188-1.021-0.559-1.296-1.059
					c-0.12-0.217-0.199-0.454-0.262-0.695c-0.098-0.377-0.148-0.777-0.063-1.162c0.053-0.238,0.187-0.433,0.273-0.657
					C111.848,382.685,112.048,382.122,112.671,381.731z"/>
				<path style="fill:#C14627;" d="M116.221,393.567c0.152,0.345,0.118,0.766-0.087,1.083c-0.113,0.174-0.27,0.314-0.437,0.437
					c-0.19,0.14-0.401,0.264-0.635,0.301c-0.177,0.028-0.36,0.005-0.533-0.04c-0.378-0.098-0.745-0.317-0.921-0.665
					c-0.082-0.162-0.12-0.344-0.131-0.526c-0.017-0.285,0.032-0.577,0.163-0.83c0.132-0.253,0.351-0.464,0.618-0.564
					c0.116-0.043,0.239-0.065,0.363-0.079c0.194-0.021,0.395-0.017,0.579,0.053c0.114,0.043,0.201,0.124,0.305,0.183
					C115.809,393.09,116.073,393.23,116.221,393.567z"/>
				<path style="fill:#003C34;" d="M173.23,395.698c0.026,0.029,0.052,0.06,0.057,0.099c0.004,0.033-0.009,0.065-0.025,0.095
					c-0.101,0.193-0.297,0.314-0.484,0.425c-0.176,0.105-0.354,0.211-0.551,0.265c-0.197,0.055-0.419,0.052-0.594-0.052
					c-0.197-0.116-0.306-0.339-0.366-0.559c-0.091-0.335-0.107-0.907,0.199-1.154c0.252-0.203,0.939,0.225,1.166,0.373
					C172.853,395.332,173.055,395.503,173.23,395.698z"/>
				<path style="fill:#C14627;" d="M167.357,399.693c0.152,0.345,0.118,0.766-0.087,1.082c-0.112,0.174-0.27,0.314-0.437,0.437
					c-0.19,0.141-0.401,0.264-0.635,0.301c-0.177,0.028-0.36,0.005-0.534-0.04c-0.378-0.098-0.744-0.317-0.921-0.665
					c-0.082-0.162-0.12-0.344-0.131-0.526c-0.017-0.285,0.032-0.577,0.163-0.829c0.132-0.253,0.351-0.464,0.618-0.564
					c0.116-0.043,0.239-0.065,0.363-0.079c0.194-0.021,0.395-0.017,0.579,0.054c0.114,0.043,0.201,0.124,0.305,0.183
					C166.945,399.216,167.209,399.356,167.357,399.693z"/>
				<path style="fill:#003C34;" d="M172.737,376.383c0.152,0.345,0.118,0.766-0.087,1.083c-0.113,0.174-0.27,0.314-0.437,0.437
					c-0.19,0.14-0.401,0.264-0.635,0.301c-0.177,0.028-0.36,0.005-0.533-0.04c-0.378-0.098-0.745-0.317-0.921-0.665
					c-0.082-0.162-0.12-0.344-0.131-0.526c-0.017-0.285,0.031-0.577,0.163-0.829s0.351-0.464,0.618-0.564
					c0.116-0.043,0.239-0.066,0.363-0.079c0.194-0.021,0.395-0.017,0.579,0.053c0.114,0.043,0.201,0.124,0.306,0.183
					C172.325,375.906,172.589,376.046,172.737,376.383z"/>
				<path style="fill:#003C34;" d="M186.246,386.595c0.152,0.345,0.118,0.766-0.087,1.082c-0.112,0.174-0.27,0.314-0.437,0.437
					c-0.19,0.141-0.401,0.264-0.635,0.301c-0.177,0.028-0.36,0.005-0.533-0.04c-0.378-0.098-0.745-0.317-0.921-0.665
					c-0.082-0.162-0.12-0.344-0.131-0.526c-0.017-0.285,0.032-0.577,0.163-0.83c0.132-0.253,0.351-0.464,0.618-0.564
					c0.116-0.043,0.239-0.066,0.363-0.079c0.194-0.021,0.395-0.017,0.579,0.053c0.114,0.044,0.2,0.124,0.305,0.183
					C185.834,386.118,186.098,386.258,186.246,386.595z"/>
				<path style="fill:#003C34;" d="M157.339,378.145c0.324-0.599,0.949-0.994,1.608-1.166c0.659-0.172,1.354-0.144,2.03-0.066
					c0.619,0.071,1.249,0.19,1.781,0.515c0.623,0.381,1.054,1.013,1.354,1.678c0.537,1.186,0.701,2.595,0.179,3.788
					c-0.522,1.193-1.828,2.074-3.112,1.863C158.992,384.398,156.179,380.291,157.339,378.145z"/>
				<path style="fill:#003C34;" d="M129.601,369.542c0.208-0.385,0.609-0.638,1.033-0.749c0.423-0.11,0.869-0.092,1.304-0.042
					c0.397,0.046,0.802,0.122,1.143,0.331c0.4,0.244,0.677,0.65,0.87,1.077c0.345,0.762,0.45,1.667,0.115,2.433
					c-0.335,0.766-1.173,1.332-1.999,1.197C130.662,373.558,128.856,370.92,129.601,369.542z"/>
				
					<path style="fill:none;stroke:#F4CB1C;stroke-width:2.1776;stroke-linecap:round;stroke-linejoin:round;stroke-miterlimit:10;" d="
					M182.851,259.331c-2.918-1.026-6.122,1.905-6.203,4.997c-0.081,3.092,2.121,5.848,4.746,7.486
					c-2.755-0.636-5.503,2.081-5.53,4.908c-0.027,2.827,2.059,5.348,4.594,6.599c-2.752,0.703-4.878,3.362-4.958,6.201
					c-0.081,2.839,1.891,5.614,4.598,6.472c-2.509,0.7-4.409,3.173-4.438,5.778c-0.029,2.605,1.815,5.12,4.307,5.876
					c-4.299,2.741-5.13,9.601-1.609,13.289c-3.011,0.988-4.786,4.484-4.282,7.613c0.504,3.129,2.945,5.734,5.865,6.966
					c-2.936-0.53-6.111,1.449-6.929,4.319c-0.818,2.87,0.837,6.225,3.612,7.323c-2.907,1.123-5.155,3.81-5.747,6.87
					c-0.592,3.06,0.492,6.391,2.771,8.517c-2.105,0.559-3.709,2.629-3.723,4.808c-0.014,2.178,1.562,4.27,3.659,4.856"/>
				<path style="fill:#F4CB1C;" d="M97.181,384.989c-6.516,6.126-13.087,13.248-14.15,22.129c-0.106,0.891,0.196,2.155,1.088,2.055
					c0.606-0.068,0.894-0.763,1.081-1.343c3.152-9.807,11.554-16.971,20.224-22.534c1.095-0.702,2.272-1.474,2.719-2.696
					C110.58,375.95,98.285,383.952,97.181,384.989z"/>
				
					<path style="fill:none;stroke:#F4CB1C;stroke-width:2.0199;stroke-linecap:round;stroke-linejoin:round;stroke-miterlimit:10;" d="
					M78.597,417.343c0.186,1.396,0.789,3.039,2.177,3.281c0.958,0.167,1.911-0.473,2.414-1.305c0.504-0.832,0.654-1.823,0.794-2.785
					c0.124,1.76,1.471,3.365,3.183,3.791c0.833-0.97,1.347-2.211,1.443-3.486c0.116,0.443,0.733,0.46,1.184,0.378
					c1.79-0.323,3.808-0.801,4.703-2.384c2.57-4.545-5.489-9.971-9.412-9.483C79.877,405.997,78.024,413.048,78.597,417.343z"/>
			</g>
		</g>
		<g style="clip-path:url(#SVGID_00000130612837528932017290000010733861731999691431_);">
			<g>
				<g>
					<path style="fill:#236F62;" d="M95.247,526.697c-4.498-7.029-4.212-16.338-0.717-23.721
						c3.494-7.383,9.789-13.046,16.664-17.393c1.256,3.106,5.679,8.592,8.609,10.209c0,0-1.536-9.364-1.127-12.781
						c0.576-4.814,5.671-7.404,10.124-9.195c4.221-1.698,8.441-3.395,12.662-5.092c2.252,5.915,5.674,11.404,10.003,16.046
						c0.243-7.3-0.287-14.646-1.579-21.874c23.898-11.556,65.469,0.864,69.948,3.981c-4.509,15.75-12.703,30.194-23.313,42.514
						c-0.912,1.06-1.994,2.177-3.402,2.247c-1.031,0.052-2.006-0.478-2.917-0.992c-3.372-1.9-6.744-3.8-10.116-5.701
						c2.36,3.938,5.045,7.686,8.016,11.19c-4.827,5.611-10.224,10.723-16.085,15.235c-0.628,0.483-1.3,0.976-2.092,1.067
						c-1.008,0.116-1.977-0.435-2.86-0.967c-3.78-2.274-7.559-4.549-11.339-6.823c3.672,4.266,7.592,9.96,5.262,14.951
						c-0.932,1.995-2.723,3.412-4.47,4.735c-4.062,3.075-8.21,6.038-12.438,8.884c-5.074-4.465-9.939-9.171-14.571-14.098
						c2.81,6.472,5.621,12.943,8.431,19.415c-8.676,4.007-19.544,1.241-27.112-4.965
						C103.258,547.365,100.526,534.945,95.247,526.697z"/>
				</g>
				
					<path style="fill:none;stroke:#FFF9ED;stroke-width:2.7466;stroke-linecap:round;stroke-linejoin:round;stroke-miterlimit:10;" d="
					M176.804,489.997c-3.714,0.656-7.233,2.262-10.139,4.627"/>
				
					<path style="fill:none;stroke:#FFF9ED;stroke-width:2.7466;stroke-linecap:round;stroke-linejoin:round;stroke-miterlimit:10;" d="
					M167.808,476.562c-3.144,1.547-6.288,3.094-9.433,4.641"/>
				
					<path style="fill:none;stroke:#FFF9ED;stroke-width:2.7466;stroke-linecap:round;stroke-linejoin:round;stroke-miterlimit:10;" d="
					M140.77,493.049c-1.943,1.611-3.885,3.222-5.828,4.833"/>
				
					<path style="fill:none;stroke:#FFF9ED;stroke-width:2.7466;stroke-linecap:round;stroke-linejoin:round;stroke-miterlimit:10;" d="
					M155.556,493.105c-2.561,1.142-5.122,2.283-7.682,3.424"/>
				
					<path style="fill:none;stroke:#FFF9ED;stroke-width:2.7466;stroke-linecap:round;stroke-linejoin:round;stroke-miterlimit:10;" d="
					M145.663,505.754c-2.627,1.621-5.254,3.241-7.881,4.862"/>
				
					<path style="fill:none;stroke:#FFF9ED;stroke-width:2.7466;stroke-linecap:round;stroke-linejoin:round;stroke-miterlimit:10;" d="
					M161.225,510.109c-1.234,0.768-2.469,1.537-3.703,2.305"/>
				
					<path style="fill:none;stroke:#FFF9ED;stroke-width:2.7466;stroke-linecap:round;stroke-linejoin:round;stroke-miterlimit:10;" d="
					M176.31,515.582c-2.853,1.931-5.705,3.861-8.558,5.792"/>
				
					<path style="fill:none;stroke:#FFF9ED;stroke-width:2.7466;stroke-linecap:round;stroke-linejoin:round;stroke-miterlimit:10;" d="
					M197.13,483.077c-1.645,1.697-3.598,3.091-5.74,4.097"/>
				
					<path style="fill:none;stroke:#FFF9ED;stroke-width:2.7466;stroke-linecap:round;stroke-linejoin:round;stroke-miterlimit:10;" d="
					M194.745,470.064c-2.105,1.073-4.444,1.696-6.823,1.819"/>
				
					<path style="fill:none;stroke:#FFF9ED;stroke-width:2.7466;stroke-linecap:round;stroke-linejoin:round;stroke-miterlimit:10;" d="
					M173.873,463.55c-1.469,0.479-2.939,0.958-4.408,1.438"/>
				
					<path style="fill:none;stroke:#FFF9ED;stroke-width:2.7466;stroke-linecap:round;stroke-linejoin:round;stroke-miterlimit:10;" d="
					M131.13,487.357c-1.38,0.873-2.76,1.746-4.14,2.618"/>
				
					<path style="fill:none;stroke:#FFF9ED;stroke-width:2.7466;stroke-linecap:round;stroke-linejoin:round;stroke-miterlimit:10;" d="
					M110.388,503.858c-2.828,1.961-5.4,4.287-7.636,6.905"/>
				
					<path style="fill:none;stroke:#FFF9ED;stroke-width:2.7466;stroke-linecap:round;stroke-linejoin:round;stroke-miterlimit:10;" d="
					M125.908,503.931c-1.665,1.381-3.33,2.762-4.995,4.142"/>
				
					<path style="fill:none;stroke:#FFF9ED;stroke-width:2.7466;stroke-linecap:round;stroke-linejoin:round;stroke-miterlimit:10;" d="
					M119.695,527.791c-1.895,1.957-4.113,3.596-6.54,4.837"/>
				
					<path style="fill:none;stroke:#FFF9ED;stroke-width:2.7466;stroke-linecap:round;stroke-linejoin:round;stroke-miterlimit:10;" d="
					M139.283,531.074c-0.555,0.46-1.11,0.921-1.665,1.381"/>
				
					<path style="fill:none;stroke:#FFF9ED;stroke-width:2.7466;stroke-linecap:round;stroke-linejoin:round;stroke-miterlimit:10;" d="
					M135.524,519.763c-2.477,1.814-4.954,3.627-7.431,5.441"/>
				
					<path style="fill:none;stroke:#FFF9ED;stroke-width:2.7466;stroke-linecap:round;stroke-linejoin:round;stroke-miterlimit:10;" d="
					M149.826,535.317c-1.249,1.036-2.498,2.071-3.747,3.107"/>
				
					<path style="fill:none;stroke:#FFF9ED;stroke-width:2.7466;stroke-linecap:round;stroke-linejoin:round;stroke-miterlimit:10;" d="
					M123.577,547.744c-1.049,0.145-2.098,0.289-3.146,0.434"/>
				
					<path style="fill:none;stroke:#FFF9ED;stroke-width:2.7466;stroke-linecap:round;stroke-linejoin:round;stroke-miterlimit:10;" d="
					M108.918,521.552c-0.954,0.541-1.909,1.083-2.863,1.624"/>
				
					<path style="fill:none;stroke:#FFF9ED;stroke-width:2.7466;stroke-linecap:round;stroke-linejoin:round;stroke-miterlimit:10;" d="
					M196.264,498.973c-1.11,0.92-2.22,1.841-3.33,2.762"/>
			</g>
			<g>
				<path style="fill:#0B6D44;" d="M80.411,17.095c10.435-0.774,21.148,3.043,28.657,10.359c1.706,1.663,2.751,3.936,2.701,6.318
					c-0.086,4.13-3.073,5.482-5.952,6.137c-4.934,1.123-10.229,0.597-14.846-1.475c-5.619-2.522-10.543-7.324-16.701-7.435
					c2.308,6.468,7.77,11.585,7.597,19.067c-0.067,2.868-1.45,5.613-3.93,7.054c-5.302,3.081-10.617-1.796-12.102-6.947
					c-1.292-4.478-0.728-9.277-1.488-13.875c-0.76-4.598-3.582-9.506-8.198-10.147c3.025,9.443,3.688,24.447-5.595,27.931
					c-3.918,1.47-5.175,0.529-5.712,0.061c-3.679-3.207-2.703-8.229-2.475-13.104c0.227-4.875,1.644-9.612,2.268-14.452
					c0.271-2.102,0.38-4.303-0.389-6.278c-0.77-1.975-2.624-3.661-4.744-3.629c-1.346,5.276-2.693,10.551-4.039,15.827
					c-1.156,4.531-2.426,9.283-6.347,12.24c-1.848,1.394-4.183,2.083-6.443,1.586c-4.9-1.078-6.119-6.347-5.416-10.679
					c1.568-9.669,10.214-17.435,10.372-27.229c-4.038,0.16-5.924,4.871-8.284,8.151c-2.947,4.096-8.252,6.762-13.307,4.771
					c-2.331-0.918-4.205-2.824-4.89-5.234c-1.34-4.716,2.151-8.962,5.896-11.741c3.43-2.545,7.416-4.615,9.722-8.211
					C13.027-2.784,8.988-2.825,5.272-3.955c-2.815-0.856-5.774-2.709-5.47-6.089c0.154-1.709,1.22-3.189,2.675-4.098
					c3.184-1.99,9.386-2.399,12.871-1.795c0.23-5.951-0.013-10.789,3.737-15.408c1.89-2.327,5.359-2.463,7.443-0.307
					c3.432,3.549,5.511,8.426,5.512,13.373c1.951-5.892,3.902-11.785,5.853-17.678c0.849-2.563,1.731-5.189,3.433-7.286
					s4.429-3.581,7.077-3.049c2.469,0.496,4.351,2.646,5.192,5.02c2.155,6.077-1.468,12.543-4.949,17.971
					c-1.949,3.039-3.898,6.078-5.847,9.117c3.355,0.211,6.548-1.698,8.787-4.205c2.239-2.508,3.712-5.586,5.311-8.543
					c2.69-4.977,5.811-9.721,9.315-14.163c0.966-1.225,2.108-2.527,4.135-1.812c0.819,0.289,1.511,0.866,2.01,1.577
					c4.275,6.091,2.313,14.337-1.399,20.6c-3.522,5.943-14,10.852-17.043,17.055c6.466,4.097,8.95-0.679,9.935-2.317
					c3.108-5.173,7.086-9.823,11.72-13.689c1.328-1.108,3.027-1.744,4.748-1.565c5.165,0.538,5.441,7.156,3.929,11.654
					C82.059-3.078,73.823,2.526,67.87,6.53c8.799,0.664,15.986-4.811,21.188-7.827c2.852-1.653,9.403-6.238,14.328,0.199
					c0.978,1.279,1.592,3.583,1.223,5.15c-0.647,2.747-2.903,3.993-5.098,5.066C93.002,12.3,87.251,14.712,80.411,17.095z"/>
				
					<path style="fill:none;stroke:#F4CB1C;stroke-width:3.2343;stroke-linecap:round;stroke-linejoin:round;stroke-miterlimit:10;" d="
					M102.635,32.036c-18.363-2.533-34.633-12.74-50.263-22.705C31.154-4.196,9.466-18.149-5.708-38.223"/>
				
					<path style="fill:none;stroke:#F4CB1C;stroke-width:3.2343;stroke-linecap:round;stroke-linejoin:round;stroke-miterlimit:10;" d="
					M66.9,26.179c-2.247-1.424-4.494-2.848-6.742-4.271"/>
				
					<path style="fill:none;stroke:#F4CB1C;stroke-width:3.2343;stroke-linecap:round;stroke-linejoin:round;stroke-miterlimit:10;" d="
					M49.078,15.76c-0.987-0.918-1.975-1.836-2.962-2.754"/>
				
					<path style="fill:none;stroke:#F4CB1C;stroke-width:3.2343;stroke-linecap:round;stroke-linejoin:round;stroke-miterlimit:10;" d="
					M50.269,25.09c-0.655-0.415-1.311-0.831-1.966-1.246"/>
				
					<path style="fill:none;stroke:#F4CB1C;stroke-width:3.2343;stroke-linecap:round;stroke-linejoin:round;stroke-miterlimit:10;" d="
					M72.104,39.712c-0.936-0.593-1.873-1.187-2.809-1.78"/>
				
					<path style="fill:none;stroke:#F4CB1C;stroke-width:3.2343;stroke-linecap:round;stroke-linejoin:round;stroke-miterlimit:10;" d="
					M35.949,8.545c-1.099-0.959-2.197-1.917-3.296-2.876"/>
				
					<path style="fill:none;stroke:#F4CB1C;stroke-width:3.2343;stroke-linecap:round;stroke-linejoin:round;stroke-miterlimit:10;" d="
					M30.986,20.732c-0.594-0.511-1.188-1.023-1.782-1.534"/>
				
					<path style="fill:none;stroke:#F4CB1C;stroke-width:3.2343;stroke-linecap:round;stroke-linejoin:round;stroke-miterlimit:10;" d="
					M25.631,1.22c-0.868-0.698-1.736-1.396-2.604-2.094"/>
				
					<path style="fill:none;stroke:#F4CB1C;stroke-width:3.2343;stroke-linecap:round;stroke-linejoin:round;stroke-miterlimit:10;" d="
					M17.038,6.067c-0.498-0.454-0.997-0.908-1.495-1.362"/>
				
					<path style="fill:none;stroke:#F4CB1C;stroke-width:3.2343;stroke-linecap:round;stroke-linejoin:round;stroke-miterlimit:10;" d="
					M37.541-10.122c-1.334-0.998-2.669-1.996-4.003-2.994"/>
				
					<path style="fill:none;stroke:#F4CB1C;stroke-width:3.2343;stroke-linecap:round;stroke-linejoin:round;stroke-miterlimit:10;" d="
					M38.908-19.113c-0.281-0.178-0.562-0.356-0.843-0.534"/>
				
					<path style="fill:none;stroke:#F4CB1C;stroke-width:3.2343;stroke-linecap:round;stroke-linejoin:round;stroke-miterlimit:10;" d="
					M52.523-8.912c-0.843-0.534-1.685-1.068-2.528-1.602"/>
				
					<path style="fill:none;stroke:#F4CB1C;stroke-width:3.2343;stroke-linecap:round;stroke-linejoin:round;stroke-miterlimit:10;" d="
					M50.867-0.09c-0.969-0.749-1.937-1.498-2.906-2.247"/>
				
					<path style="fill:none;stroke:#F4CB1C;stroke-width:3.2343;stroke-linecap:round;stroke-linejoin:round;stroke-miterlimit:10;" d="
					M65.058,10.447c-1.124-0.712-2.247-1.424-3.371-2.136"/>
				
					<path style="fill:none;stroke:#F4CB1C;stroke-width:3.2343;stroke-linecap:round;stroke-linejoin:round;stroke-miterlimit:10;" d="
					M64.479,1.419c-0.562-0.356-1.124-0.712-1.685-1.068"/>
				
					<path style="fill:none;stroke:#F4CB1C;stroke-width:3.2343;stroke-linecap:round;stroke-linejoin:round;stroke-miterlimit:10;" d="
					M78.916,15.293c-1.003-0.485-2.005-0.97-3.008-1.456"/>
				
					<path style="fill:none;stroke:#F4CB1C;stroke-width:3.2343;stroke-linecap:round;stroke-linejoin:round;stroke-miterlimit:10;" d="
					M93.019,26.579c-1.324-0.292-2.596-0.821-3.737-1.554"/>
			</g>
			<g>
				<g>
					<path style="fill:#236F62;" d="M-21.199-3.907c7.111-4.368,16.413-3.909,23.73-0.279S15.393,5.843,19.613,12.797
						c-3.129,1.198-8.696,5.519-10.367,8.419c0,0,9.391-1.363,12.799-0.891c4.802,0.665,7.297,5.807,9.006,10.292
						c1.619,4.251,3.238,8.502,4.857,12.753c-5.956,2.143-11.507,5.463-16.228,9.705c7.294,0.378,14.648-0.016,21.899-1.175
						c11.112,24.107-2.074,65.442-5.273,69.863c-15.664-4.8-29.954-13.259-42.076-24.095c-1.042-0.932-2.14-2.034-2.184-3.443
						c-0.032-1.031,0.515-1.997,1.046-2.898c1.962-3.336,3.924-6.672,5.887-10.009c-3.981,2.287-7.778,4.902-11.336,7.808
						c-5.521-4.93-10.533-10.421-14.936-16.364c-0.471-0.636-0.951-1.317-1.028-2.112c-0.098-1.01,0.472-1.968,1.02-2.842
						c2.344-3.737,4.688-7.474,7.032-11.21c-4.333,3.593-10.099,7.406-15.046,4.984c-1.978-0.968-3.361-2.786-4.651-4.557
						c-3-4.119-5.885-8.32-8.653-12.6c4.558-4.991,9.354-9.768,14.365-14.308c-6.523,2.69-13.045,5.381-19.568,8.071
						c-3.846-8.749-0.88-19.564,5.465-27.016C-42.012,3.721-29.544,1.219-21.199-3.907z"/>
				</g>
				
					<path style="fill:none;stroke:#FFF9ED;stroke-width:2.7466;stroke-linecap:round;stroke-linejoin:round;stroke-miterlimit:10;" d="
					M13.986,78.315c-0.587-3.725-2.128-7.274-4.439-10.223"/>
				
					<path style="fill:none;stroke:#FFF9ED;stroke-width:2.7466;stroke-linecap:round;stroke-linejoin:round;stroke-miterlimit:10;" d="
					M27.585,69.568c-1.489-3.172-2.977-6.344-4.466-9.517"/>
				
					<path style="fill:none;stroke:#FFF9ED;stroke-width:2.7466;stroke-linecap:round;stroke-linejoin:round;stroke-miterlimit:10;" d="
					M11.601,42.23c-1.575-1.972-3.149-3.944-4.724-5.916"/>
				
					<path style="fill:none;stroke:#FFF9ED;stroke-width:2.7466;stroke-linecap:round;stroke-linejoin:round;stroke-miterlimit:10;" d="
					M11.271,57.013c-1.094-2.582-2.188-5.163-3.282-7.744"/>
				
					<path style="fill:none;stroke:#FFF9ED;stroke-width:2.7466;stroke-linecap:round;stroke-linejoin:round;stroke-miterlimit:10;" d="
					M-1.192,46.887c-1.572-2.656-3.144-5.313-4.715-7.969"/>
				
					<path style="fill:none;stroke:#FFF9ED;stroke-width:2.7466;stroke-linecap:round;stroke-linejoin:round;stroke-miterlimit:10;" d="
					M-5.835,62.366c-0.745-1.248-1.491-2.497-2.236-3.745"/>
				
					<path style="fill:none;stroke:#FFF9ED;stroke-width:2.7466;stroke-linecap:round;stroke-linejoin:round;stroke-miterlimit:10;" d="
					M-11.585,77.348c-1.878-2.888-3.755-5.776-5.633-8.664"/>
				
					<path style="fill:none;stroke:#FFF9ED;stroke-width:2.7466;stroke-linecap:round;stroke-linejoin:round;stroke-miterlimit:10;" d="
					M20.53,98.765c-1.667-1.676-3.024-3.654-3.99-5.815"/>
				
					<path style="fill:none;stroke:#FFF9ED;stroke-width:2.7466;stroke-linecap:round;stroke-linejoin:round;stroke-miterlimit:10;" d="
					M33.584,96.621c-1.034-2.124-1.614-4.475-1.692-6.855"/>
				
					<path style="fill:none;stroke:#FFF9ED;stroke-width:2.7466;stroke-linecap:round;stroke-linejoin:round;stroke-miterlimit:10;" d="
					M40.483,75.873c-0.452-1.478-0.904-2.956-1.356-4.434"/>
				
					<path style="fill:none;stroke:#FFF9ED;stroke-width:2.7466;stroke-linecap:round;stroke-linejoin:round;stroke-miterlimit:10;" d="
					M17.47,32.697c-0.847-1.396-1.694-2.792-2.542-4.188"/>
				
					<path style="fill:none;stroke:#FFF9ED;stroke-width:2.7466;stroke-linecap:round;stroke-linejoin:round;stroke-miterlimit:10;" d="
					M1.355,11.654C-0.553,8.79-2.831,6.176-5.408,3.892"/>
				
					<path style="fill:none;stroke:#FFF9ED;stroke-width:2.7466;stroke-linecap:round;stroke-linejoin:round;stroke-miterlimit:10;" d="
					M0.996,27.169c-1.35-1.69-2.699-3.381-4.049-5.071"/>
				
					<path style="fill:none;stroke:#FFF9ED;stroke-width:2.7466;stroke-linecap:round;stroke-linejoin:round;stroke-miterlimit:10;" d="
					M-22.745,20.516c-1.921-1.931-3.52-4.178-4.715-6.629"/>
				
					<path style="fill:none;stroke:#FFF9ED;stroke-width:2.7466;stroke-linecap:round;stroke-linejoin:round;stroke-miterlimit:10;" d="
					M-26.39,40.04c-0.45-0.563-0.9-1.127-1.35-1.69"/>
				
					<path style="fill:none;stroke:#FFF9ED;stroke-width:2.7466;stroke-linecap:round;stroke-linejoin:round;stroke-miterlimit:10;" d="
					M-15.012,36.491c-1.767-2.51-3.535-5.02-5.303-7.531"/>
				
					<path style="fill:none;stroke:#FFF9ED;stroke-width:2.7466;stroke-linecap:round;stroke-linejoin:round;stroke-miterlimit:10;" d="
					M-30.827,50.503c-1.012-1.268-2.025-2.536-3.037-3.803"/>
				
					<path style="fill:none;stroke:#FFF9ED;stroke-width:2.7466;stroke-linecap:round;stroke-linejoin:round;stroke-miterlimit:10;" d="
					M-42.767,24.029c-0.125-1.051-0.251-2.103-0.376-3.154"/>
				
					<path style="fill:none;stroke:#FFF9ED;stroke-width:2.7466;stroke-linecap:round;stroke-linejoin:round;stroke-miterlimit:10;" d="
					M-16.309,9.857c-0.524-0.964-1.047-1.929-1.571-2.893"/>
				
					<path style="fill:none;stroke:#FFF9ED;stroke-width:2.7466;stroke-linecap:round;stroke-linejoin:round;stroke-miterlimit:10;" d="
					M4.652,97.606c-0.9-1.127-1.8-2.254-2.699-3.381"/>
			</g>
			<g>
				<path style="fill:#078A44;" d="M6.487,447.113c7.717-7.585,16.088-14.797,26.019-19.094c9.931-4.297,21.706-5.369,31.472-0.711
					c7.774,3.708,17.953,5.871,25.45,28.707c3.827,11.656,2.637,24.797-3.903,35.178c-6.54,10.38-16.993,17.857-28.281,22.664
					c-19.615,8.354-42.366,9.076-62.471,1.981c-5.401-1.906-10.777-4.473-14.534-8.796c-8.127-9.353-2.243-20.887,2.756-30.18
					C-10.987,465.675-2.528,455.974,6.487,447.113z"/>
				
					<path style="fill:none;stroke:#003C34;stroke-width:4.3541;stroke-linecap:round;stroke-linejoin:round;stroke-miterlimit:10;" d="
					M78.287,453.94c-25.313,25.39-58.295,43.031-93.465,49.993"/>
				
					<path style="fill:none;stroke:#003C34;stroke-width:4.3541;stroke-linecap:round;stroke-linejoin:round;stroke-miterlimit:10;" d="
					M59.049,439.234c-1.774,11-3.411,22.022-4.91,33.062c-0.069,0.508-0.118,1.088,0.223,1.472c0.283,0.319,0.745,0.394,1.168,0.448
					c7.839,0.991,15.75,1.402,23.649,1.229"/>
				
					<path style="fill:none;stroke:#003C34;stroke-width:4.3541;stroke-linecap:round;stroke-linejoin:round;stroke-miterlimit:10;" d="
					M39.327,435.357c-2.561,17.205-4.391,34.518-5.483,51.878c12.792,0.915,25.583,1.829,38.375,2.744"/>
				
					<path style="fill:none;stroke:#003C34;stroke-width:4.3541;stroke-linecap:round;stroke-linejoin:round;stroke-miterlimit:10;" d="
					M16.827,456.901c-0.598,13.117-1.197,26.234-1.795,39.352c10.849,3.454,22.37,4.787,33.721,3.903"/>
				
					<path style="fill:none;stroke:#003C34;stroke-width:4.3541;stroke-linecap:round;stroke-linejoin:round;stroke-miterlimit:10;" d="
					M-2.105,476.852c-1.856,8.238-3.712,16.475-5.568,24.713c-0.093,0.411-0.185,0.845-0.064,1.249
					c0.158,0.528,0.64,0.882,1.096,1.19c6.08,4.11,12.956,7.036,20.134,8.566"/>
			</g>
			<g>
				<path style="fill:#078A44;" d="M713.938,51.991c-8.786,3.347-17.963,6.17-27.365,6.128c-9.402-0.042-19.148-3.293-25.298-10.405
					c-4.896-5.661-12.243-10.931-10.25-31.72c1.017-10.612,6.545-20.656,15.369-26.639c8.823-5.982,19.75-8.289,30.41-8.181
					c18.524,0.188,36.885,7.544,50.414,20.199c3.635,3.4,7.018,7.317,8.502,12.067c3.208,10.277-5.495,17.407-12.714,23.061
					C734.316,43.308,724.202,48.081,713.938,51.991z"/>
				
					<path style="fill:none;stroke:#003C34;stroke-width:3.7834;stroke-linecap:round;stroke-linejoin:round;stroke-miterlimit:10;" d="
					M659.169,21.529c28.997-11.385,61.399-13.93,91.818-7.212"/>
				
					<path style="fill:none;stroke:#003C34;stroke-width:3.7834;stroke-linecap:round;stroke-linejoin:round;stroke-miterlimit:10;" d="
					M669.355,39.941c5.247-8.137,10.391-16.339,15.433-24.604c0.232-0.38,0.473-0.825,0.336-1.249
					c-0.114-0.353-0.456-0.573-0.774-0.764c-5.894-3.521-12.048-6.606-18.395-9.222"/>
				
					<path style="fill:none;stroke:#003C34;stroke-width:3.7834;stroke-linecap:round;stroke-linejoin:round;stroke-miterlimit:10;" d="
					M683.701,49.901c8.036-12.801,15.527-25.944,22.448-39.38c-9.862-5.187-19.725-10.374-29.587-15.56"/>
				
					<path style="fill:none;stroke:#003C34;stroke-width:3.7834;stroke-linecap:round;stroke-linejoin:round;stroke-miterlimit:10;" d="
					M709.12,40.596c5.048-10.232,10.097-20.464,15.146-30.696c-7.432-6.531-16.136-11.608-25.48-14.861"/>
				
					<path style="fill:none;stroke:#003C34;stroke-width:3.7834;stroke-linecap:round;stroke-linejoin:round;stroke-miterlimit:10;" d="
					M731.143,31.316c4.349-5.91,8.697-11.819,13.046-17.729c0.217-0.295,0.442-0.608,0.486-0.972
					c0.058-0.475-0.202-0.925-0.458-1.33c-3.406-5.391-7.86-10.116-13.039-13.836"/>
			</g>
			<g>
				
					<path style="fill:none;stroke:#FFF9ED;stroke-width:2.5863;stroke-linecap:round;stroke-linejoin:round;stroke-miterlimit:10;" d="
					M2.658,263.304c-2.878-7.346-2.51-15.914,1.092-22.951c0.819-1.599,2.224-2.857,3.952-3.351
					c2.995-0.857,4.633,0.995,5.745,2.924c1.906,3.305,2.705,7.237,2.238,11.025c-0.568,4.61-2.933,9.224-1.644,13.686
					c4.147-3.101,6.619-8.174,12.049-9.713c2.081-0.59,4.367-0.203,5.957,1.263c3.399,3.135,1.066,8.049-2.315,10.265
					c-2.939,1.926-6.522,2.587-9.666,4.157c-3.144,1.57-6.052,4.694-5.488,8.163c6.131-4.279,16.794-8.093,21.369-2.179
					c1.931,2.496,1.532,3.611,1.314,4.102c-1.493,3.363-5.328,3.777-8.891,4.697c-3.563,0.92-7.291,0.953-10.917,1.579
					c-1.575,0.272-3.185,0.683-4.437,1.676c-1.252,0.993-2.055,2.705-1.56,4.225c4.1-0.203,8.201-0.406,12.301-0.609
					c3.522-0.174,7.228-0.316,10.23,1.852c1.415,1.022,2.431,2.551,2.575,4.29c0.313,3.77-3.213,5.82-6.49,6.277
					c-7.315,1.02-14.833-3.482-21.925-1.419c1.013,2.874,4.827,3.185,7.715,4.156c3.607,1.213,6.707,4.442,6.397,8.527
					c-0.143,1.884-1.099,3.658-2.684,4.687c-3.1,2.014-6.935,0.443-9.771-1.638c-2.596-1.905-4.975-4.317-8.078-5.179
					c1.59,2.459,2.459,5.379,2.471,8.307c0.009,2.218-0.668,4.763-3.171,5.295c-1.265,0.269-2.569-0.17-3.547-1.016
					c-2.142-1.852-3.816-6.229-4.155-8.875c-4.339,1.157-7.771,2.408-11.933,0.733c-2.097-0.844-2.966-3.314-1.876-5.294
					c1.794-3.262,4.845-5.844,8.41-6.945c-4.679-0.095-9.359-0.191-14.038-0.286c-2.036-0.042-4.124-0.093-6.013-0.854
					c-1.889-0.76-3.565-2.395-3.77-4.421c-0.191-1.889,0.94-3.723,2.462-4.857c3.899-2.904,9.364-1.731,14.048-0.43
					c2.623,0.728,5.246,1.457,7.869,2.185c-0.594-2.464-2.679-4.341-4.984-5.396c-2.305-1.056-4.85-1.433-7.336-1.927
					c-4.184-0.832-8.296-2.025-12.275-3.563c-1.097-0.424-2.289-0.957-2.225-2.577c0.026-0.655,0.288-1.281,0.689-1.799
					c3.438-4.434,9.815-4.854,15.154-3.572c5.065,1.216,10.932,7.674,16.077,8.488c1.514-5.57-2.479-6.298-3.879-6.643
					c-4.418-1.089-8.653-2.921-12.469-5.401c-1.094-0.711-1.93-1.794-2.183-3.073c-0.761-3.841,3.946-5.511,7.523-5.422
					c5.18,0.129,11.049,4.817,15.258,8.216c-1.478-6.488-7.02-10.448-10.35-13.526c-1.825-1.687-6.585-5.388-3.042-10.368
					c0.704-0.989,2.227-1.943,3.439-2.026c2.123-0.145,3.523,1.204,4.784,2.547C-3.596,255.299-0.58,258.906,2.658,263.304z"/>
				
					<path style="fill:none;stroke:#FFF9ED;stroke-width:2.5863;stroke-linecap:round;stroke-linejoin:round;stroke-miterlimit:10;" d="
					M8.482,243.969c2.258,13.794-1.479,27.786-5.184,41.264c-5.029,18.295-10.26,37.025-21.349,52.421"/>
			</g>
			<g>
				
					<path style="fill:none;stroke:#FFF9ED;stroke-width:2.5863;stroke-linecap:round;stroke-linejoin:round;stroke-miterlimit:10;" d="
					M734.983,89.801c0.537,7.871-2.388,15.933-7.938,21.562c-1.261,1.279-2.98,2.057-4.776,2.009
					c-3.114-0.083-4.12-2.341-4.601-4.515c-0.825-3.725-0.405-7.715,1.178-11.188c1.927-4.226,5.569-7.917,5.68-12.56
					c-4.887,1.712-8.769,5.808-14.411,5.644c-2.162-0.063-4.226-1.118-5.302-2.994c-2.299-4.011,1.402-7.997,5.292-9.095
					c3.382-0.954,6.998-0.507,10.469-1.06c3.47-0.553,7.183-2.659,7.687-6.137c-7.134,2.239-18.45,2.673-21.036-4.343
					c-1.091-2.961-0.376-3.904-0.021-4.307c2.434-2.76,6.217-2.002,9.891-1.808c3.675,0.193,7.241,1.282,10.887,1.774
					c1.584,0.214,3.243,0.306,4.735-0.266c1.492-0.572,2.772-1.963,2.758-3.561c-3.972-1.039-7.944-2.077-11.916-3.116
					c-3.411-0.892-6.989-1.871-9.201-4.84c-1.043-1.4-1.552-3.163-1.167-4.866c0.834-3.69,4.813-4.586,8.076-4.037
					c7.283,1.225,13.101,7.778,20.485,7.941c-0.103-3.045-3.647-4.488-6.109-6.282c-3.076-2.241-5.063-6.252-3.539-10.055
					c0.703-1.754,2.148-3.158,3.968-3.664c3.562-0.99,6.748,1.662,8.827,4.498c1.904,2.597,3.447,5.613,6.148,7.367
					c-0.778-2.823-0.729-5.869,0.139-8.666c0.658-2.119,2.068-4.342,4.616-4.097c1.288,0.124,2.399,0.934,3.078,2.035
					c1.486,2.41,1.768,7.088,1.296,9.713c4.486,0.2,8.135,0.038,11.602,2.886c1.746,1.435,1.833,4.052,0.199,5.613
					c-2.691,2.572-6.378,4.118-10.108,4.097c4.434,1.497,8.869,2.994,13.303,4.491c1.929,0.651,3.905,1.328,5.478,2.621
					c1.573,1.293,2.681,3.356,2.267,5.35c-0.385,1.859-2.015,3.269-3.808,3.893c-4.592,1.598-9.451-1.163-13.528-3.811
					c-2.283-1.483-4.565-2.966-6.848-4.449c-0.174,2.529,1.251,4.945,3.132,6.644c1.881,1.699,4.195,2.824,6.418,4.042
					c3.741,2.051,7.304,4.424,10.638,7.087c0.919,0.734,1.896,1.601,1.348,3.126c-0.221,0.617-0.659,1.135-1.198,1.509
					c-4.612,3.196-10.82,1.681-15.527-1.146c-4.466-2.682-8.121-10.604-12.784-12.926c-3.118,4.858,0.472,6.752,1.703,7.502
					c3.887,2.366,7.375,5.386,10.27,8.898c0.829,1.006,1.302,2.29,1.159,3.587c-0.428,3.892-5.42,4.071-8.805,2.911
					c-4.902-1.679-9.091-7.914-12.084-12.421c-0.54,6.632,3.557,12.075,5.808,16.011c1.234,2.158,4.662,7.118-0.214,10.803
					c-0.969,0.732-2.708,1.184-3.889,0.899c-2.068-0.5-2.998-2.206-3.797-3.866C738.543,99.317,736.749,94.97,734.983,89.801z"/>
				
					<path style="fill:none;stroke:#FFF9ED;stroke-width:2.5863;stroke-linecap:round;stroke-linejoin:round;stroke-miterlimit:10;" d="
					M723.618,106.493c1.991-13.835,9.76-26.057,17.343-37.799c10.293-15.939,20.911-32.231,36.114-43.583"/>
			</g>
			<g>
				
					<path style="fill:none;stroke:#FFF9ED;stroke-width:2.5863;stroke-linecap:round;stroke-linejoin:round;stroke-miterlimit:10;" d="
					M647.421,414.532c-7.436-2.636-13.67-8.525-16.63-15.855c-0.673-1.666-0.703-3.552,0.055-5.181
					c1.314-2.824,3.786-2.85,5.972-2.427c3.746,0.724,7.241,2.696,9.797,5.528c3.112,3.448,5.051,8.257,9.267,10.205
					c0.372-5.165-1.843-10.355,0.55-15.466c0.917-1.959,2.706-3.433,4.855-3.674c4.595-0.516,6.781,4.465,6.242,8.471
					c-0.469,3.483-2.316,6.623-3.189,10.027c-0.872,3.404-0.416,7.648,2.575,9.493c0.781-7.436,4.882-17.992,12.347-17.576
					c3.15,0.176,3.732,1.207,3.96,1.693c1.565,3.331-0.635,6.5-2.273,9.795c-1.638,3.295-4.055,6.134-5.956,9.285
					c-0.826,1.368-1.57,2.854-1.639,4.451c-0.069,1.597,0.699,3.324,2.171,3.946c2.532-3.232,5.064-6.464,7.596-9.695
					c2.174-2.776,4.495-5.669,8.099-6.519c1.699-0.4,3.519-0.167,4.929,0.863c3.054,2.232,2.294,6.24,0.494,9.015
					c-4.019,6.196-12.346,8.93-15.43,15.64c2.835,1.116,5.568-1.562,8.193-3.109c3.279-1.932,7.749-2.16,10.633,0.75
					c1.33,1.342,2.044,3.226,1.785,5.098c-0.508,3.662-4.207,5.531-7.636,6.311c-3.14,0.714-6.52,0.932-9.204,2.713
					c2.9,0.409,5.675,1.664,7.896,3.572c1.683,1.446,3.162,3.624,1.925,5.864c-0.625,1.132-1.811,1.83-3.091,2.015
					c-2.802,0.406-7.206-1.196-9.428-2.672c-1.967,4.037-3.269,7.45-7.26,9.498c-2.011,1.032-4.447,0.071-5.23-2.049
					c-1.29-3.492-1.244-7.489,0.258-10.904c-3.137,3.474-6.273,6.948-9.41,10.422c-1.365,1.511-2.771,3.055-4.583,3.985
					c-1.812,0.929-4.145,1.126-5.81-0.046c-1.553-1.093-2.198-3.148-2.058-5.042c0.359-4.849,4.824-8.21,8.875-10.898
					c2.268-1.505,4.536-3.01,6.805-4.515c-2.251-1.165-5.035-0.818-7.342,0.233c-2.307,1.05-4.259,2.727-6.26,4.282
					c-3.369,2.617-6.964,4.944-10.731,6.944c-1.039,0.552-2.223,1.103-3.404-0.006c-0.478-0.448-0.78-1.056-0.908-1.699
					c-1.1-5.502,2.759-10.597,7.224-13.792c4.236-3.031,12.958-3.236,16.943-6.592c-3.218-4.792-6.383-2.251-7.56-1.419
					c-3.716,2.626-7.874,4.626-12.247,5.886c-1.253,0.361-2.619,0.284-3.752-0.363c-3.401-1.94-1.581-6.592,0.829-9.237
					c3.49-3.83,10.876-5.196,16.201-6.15c-5.871-3.132-12.493-1.536-17-1.036c-2.47,0.275-8.384,1.448-9.827-4.49
					c-0.287-1.18-0.01-2.956,0.721-3.926c1.281-1.699,3.216-1.874,5.057-1.947C637.275,414.016,641.976,414.099,647.421,414.532z"/>
				
					<path style="fill:none;stroke:#FFF9ED;stroke-width:2.5863;stroke-linecap:round;stroke-linejoin:round;stroke-miterlimit:10;" d="
					M636.623,397.469c11.903,7.327,20.03,19.314,27.79,30.94c10.534,15.781,21.262,32,25.635,50.463"/>
			</g>
			<g>
				<path style="fill:#0B6D44;" d="M23.909,337.41c0.896-10.425,6.368-20.395,14.786-26.644c1.913-1.42,4.324-2.09,6.667-1.662
					c4.064,0.742,4.923,3.905,5.112,6.852c0.324,5.05-1.038,10.194-3.818,14.422c-3.384,5.147-8.908,9.243-9.997,15.306
					c6.752-1.25,12.673-5.829,20.032-4.467c2.82,0.522,5.311,2.324,6.339,5.002c2.198,5.724-3.462,10.196-8.784,10.843
					c-4.626,0.563-9.275-0.758-13.935-0.739c-4.66,0.019-9.955,2.025-11.322,6.48c9.804-1.484,24.722,0.248,26.685,9.967
					c0.828,4.102-0.301,5.193-0.848,5.649c-3.751,3.122-8.554,1.359-13.33,0.359c-4.776-1-9.228-3.152-13.907-4.538
					c-2.032-0.602-4.188-1.06-6.26-0.614c-2.072,0.446-4.032,2.008-4.337,4.106c4.994,2.169,9.988,4.337,14.983,6.506
					c4.289,1.862,8.779,3.872,11.074,8.213c1.082,2.046,1.391,4.461,0.54,6.614c-1.843,4.666-7.24,5.031-11.405,3.649
					c-9.296-3.086-15.588-12.857-25.232-14.572c-0.484,4.012,3.867,6.623,6.73,9.475c3.575,3.561,5.364,9.222,2.594,13.897
					c-1.277,2.155-3.457,3.702-5.945,3.995c-4.869,0.573-8.506-3.549-10.653-7.689c-1.967-3.791-3.377-8.056-6.56-10.904
					c0.446,3.858-0.238,7.84-1.944,11.328c-1.292,2.643-3.593,5.27-6.882,4.431c-1.662-0.424-2.954-1.712-3.62-3.293
					c-1.458-3.46-0.876-9.648,0.276-12.993c-5.839-1.174-10.654-1.703-14.618-6.141c-1.997-2.236-1.579-5.682,0.881-7.397
					c4.05-2.823,9.195-4.101,14.079-3.315c-5.507-2.863-11.014-5.727-16.521-8.59c-2.396-1.246-4.848-2.534-6.647-4.549
					c-1.799-2.014-2.831-4.942-1.884-7.472c0.883-2.358,3.305-3.874,5.782-4.327c6.343-1.161,12.15,3.445,16.954,7.745
					c2.69,2.408,5.38,4.815,8.071,7.222c0.742-3.279-0.635-6.735-2.754-9.344c-2.12-2.609-4.924-4.553-7.589-6.602
					c-4.486-3.448-8.673-7.283-12.501-11.449c-1.056-1.149-2.159-2.483-1.131-4.371c0.416-0.763,1.095-1.354,1.876-1.734
					c6.693-3.251,14.522-0.003,20.115,4.658c5.307,4.423,8.487,15.548,14.126,19.539c5.073-5.732,0.754-8.944-0.707-10.177
					c-4.613-3.891-8.57-8.558-11.65-13.749c-0.883-1.487-1.24-3.266-0.79-4.936c1.353-5.014,7.93-4.233,12.131-2.025
					c6.082,3.197,10.305,12.22,13.311,18.734c2.055-8.581-2.206-16.547-4.357-22.163c-1.179-3.078-4.663-10.276,2.476-14.114
					c1.418-0.763,3.79-1.002,5.279-0.388c2.609,1.075,3.481,3.501,4.191,5.839C21.178,324.217,22.645,330.278,23.909,337.41z"/>
				
					<path style="fill:none;stroke:#F4CB1C;stroke-width:3.2343;stroke-linecap:round;stroke-linejoin:round;stroke-miterlimit:10;" d="
					M42.196,317.846c-5.422,17.726-18.087,32.165-30.412,46.011c-16.73,18.796-33.956,37.988-56.188,49.776"/>
				
					<path style="fill:none;stroke:#F4CB1C;stroke-width:3.2343;stroke-linecap:round;stroke-linejoin:round;stroke-miterlimit:10;" d="
					M30.729,352.195c-1.763,1.992-3.526,3.984-5.29,5.976"/>
				
					<path style="fill:none;stroke:#F4CB1C;stroke-width:3.2343;stroke-linecap:round;stroke-linejoin:round;stroke-miterlimit:10;" d="
					M17.607,368.133c-1.063,0.829-2.127,1.658-3.191,2.486"/>
				
					<path style="fill:none;stroke:#F4CB1C;stroke-width:3.2343;stroke-linecap:round;stroke-linejoin:round;stroke-miterlimit:10;" d="
					M27.008,368.441c-0.514,0.581-1.029,1.162-1.543,1.743"/>
				
					<path style="fill:none;stroke:#F4CB1C;stroke-width:3.2343;stroke-linecap:round;stroke-linejoin:round;stroke-miterlimit:10;" d="
					M44.917,349.21c-0.735,0.83-1.469,1.66-2.204,2.49"/>
				
					<path style="fill:none;stroke:#F4CB1C;stroke-width:3.2343;stroke-linecap:round;stroke-linejoin:round;stroke-miterlimit:10;" d="
					M8.395,379.946c-1.121,0.932-2.242,1.864-3.363,2.796"/>
				
					<path style="fill:none;stroke:#F4CB1C;stroke-width:3.2343;stroke-linecap:round;stroke-linejoin:round;stroke-miterlimit:10;" d="
					M19.638,386.784c-0.599,0.505-1.199,1.01-1.798,1.515"/>
				
					<path style="fill:none;stroke:#F4CB1C;stroke-width:3.2343;stroke-linecap:round;stroke-linejoin:round;stroke-miterlimit:10;" d="
					M-0.478,388.968c-0.827,0.746-1.655,1.492-2.482,2.238"/>
				
					<path style="fill:none;stroke:#F4CB1C;stroke-width:3.2343;stroke-linecap:round;stroke-linejoin:round;stroke-miterlimit:10;" d="
					M2.941,398.222c-0.527,0.42-1.055,0.84-1.583,1.26"/>
				
					<path style="fill:none;stroke:#F4CB1C;stroke-width:3.2343;stroke-linecap:round;stroke-linejoin:round;stroke-miterlimit:10;" d="
					M-9.781,375.405c-1.198,1.159-2.395,2.317-3.593,3.476"/>
				
					<path style="fill:none;stroke:#F4CB1C;stroke-width:3.2343;stroke-linecap:round;stroke-linejoin:round;stroke-miterlimit:10;" d="
					M-18.44,372.625c-0.22,0.249-0.441,0.498-0.661,0.747"/>
				
					<path style="fill:none;stroke:#F4CB1C;stroke-width:3.2343;stroke-linecap:round;stroke-linejoin:round;stroke-miterlimit:10;" d="
					M-6.203,360.807c-0.661,0.747-1.322,1.494-1.984,2.241"/>
				
					<path style="fill:none;stroke:#F4CB1C;stroke-width:3.2343;stroke-linecap:round;stroke-linejoin:round;stroke-miterlimit:10;" d="
					M2.243,363.845c-0.893,0.837-1.787,1.674-2.68,2.511"/>
				
					<path style="fill:none;stroke:#F4CB1C;stroke-width:3.2343;stroke-linecap:round;stroke-linejoin:round;stroke-miterlimit:10;" d="
					M14.903,351.51c-0.882,0.996-1.763,1.992-2.645,2.988"/>
				
					<path style="fill:none;stroke:#F4CB1C;stroke-width:3.2343;stroke-linecap:round;stroke-linejoin:round;stroke-miterlimit:10;" d="
					M5.899,350.646c-0.441,0.498-0.882,0.996-1.322,1.494"/>
				
					<path style="fill:none;stroke:#F4CB1C;stroke-width:3.2343;stroke-linecap:round;stroke-linejoin:round;stroke-miterlimit:10;" d="
					M21.893,338.6c-0.639,0.913-1.277,1.825-1.916,2.738"/>
				
					<path style="fill:none;stroke:#F4CB1C;stroke-width:3.2343;stroke-linecap:round;stroke-linejoin:round;stroke-miterlimit:10;" d="
					M35.279,326.472c-0.499,1.261-1.223,2.432-2.128,3.442"/>
			</g>
			<g>
				<path style="fill:#0B6D44;" d="M734.533,441.789c0.896-10.425,6.369-20.395,14.786-26.644c1.913-1.42,4.324-2.089,6.667-1.662
					c4.064,0.742,4.923,3.905,5.112,6.852c0.324,5.05-1.038,10.194-3.818,14.422c-3.384,5.147-8.908,9.243-9.997,15.305
					c6.752-1.25,12.673-5.828,20.032-4.467c2.821,0.522,5.311,2.324,6.339,5.002c2.198,5.724-3.463,10.196-8.784,10.843
					c-4.626,0.563-9.275-0.758-13.935-0.738c-4.66,0.019-9.955,2.024-11.322,6.48c9.804-1.484,24.722,0.248,26.685,9.967
					c0.828,4.102-0.301,5.193-0.849,5.649c-3.751,3.122-8.554,1.359-13.33,0.359c-4.777-1-9.228-3.152-13.908-4.538
					c-2.032-0.602-4.188-1.06-6.26-0.614c-2.072,0.446-4.032,2.008-4.338,4.106c4.994,2.168,9.988,4.337,14.983,6.506
					c4.289,1.862,8.779,3.872,11.074,8.213c1.082,2.046,1.391,4.461,0.54,6.614c-1.844,4.666-7.24,5.031-11.405,3.649
					c-9.296-3.086-15.588-12.857-25.232-14.571c-0.484,4.012,3.867,6.623,6.73,9.475c3.575,3.561,5.364,9.222,2.594,13.896
					c-1.277,2.156-3.456,3.702-5.945,3.995c-4.869,0.573-8.506-3.549-10.654-7.689c-1.967-3.791-3.377-8.056-6.56-10.904
					c0.445,3.858-0.238,7.84-1.944,11.328c-1.292,2.643-3.593,5.27-6.882,4.431c-1.662-0.424-2.954-1.712-3.62-3.293
					c-1.458-3.46-0.876-9.648,0.276-12.993c-5.839-1.174-10.654-1.703-14.617-6.141c-1.997-2.236-1.579-5.682,0.88-7.397
					c4.05-2.823,9.195-4.101,14.079-3.315c-5.507-2.863-11.014-5.727-16.521-8.59c-2.396-1.246-4.848-2.534-6.647-4.549
					c-1.799-2.014-2.831-4.942-1.884-7.472c0.883-2.358,3.305-3.874,5.782-4.327c6.343-1.161,12.15,3.445,16.954,7.745
					c2.69,2.408,5.38,4.815,8.071,7.223c0.742-3.279-0.635-6.735-2.754-9.344c-2.12-2.609-4.924-4.553-7.589-6.602
					c-4.486-3.448-8.673-7.283-12.501-11.449c-1.055-1.149-2.159-2.484-1.131-4.371c0.416-0.763,1.095-1.354,1.876-1.734
					c6.693-3.251,14.522-0.003,20.115,4.658c5.307,4.423,8.487,15.548,14.126,19.539c5.073-5.732,0.754-8.944-0.708-10.177
					c-4.613-3.891-8.57-8.558-11.65-13.749c-0.883-1.487-1.24-3.266-0.79-4.936c1.353-5.014,7.93-4.233,12.131-2.025
					c6.083,3.197,10.305,12.22,13.311,18.734c2.055-8.581-2.206-16.547-4.356-22.163c-1.179-3.078-4.663-10.276,2.476-14.114
					c1.418-0.762,3.79-1.001,5.279-0.388c2.609,1.076,3.481,3.501,4.191,5.839C731.802,428.596,733.269,434.657,734.533,441.789z"/>
				
					<path style="fill:none;stroke:#F4CB1C;stroke-width:3.2343;stroke-linecap:round;stroke-linejoin:round;stroke-miterlimit:10;" d="
					M752.82,422.225c-5.422,17.726-18.088,32.165-30.412,46.011c-16.73,18.796-33.956,37.988-56.188,49.776"/>
				
					<path style="fill:none;stroke:#F4CB1C;stroke-width:3.2343;stroke-linecap:round;stroke-linejoin:round;stroke-miterlimit:10;" d="
					M741.353,456.573c-1.763,1.992-3.526,3.984-5.29,5.976"/>
				
					<path style="fill:none;stroke:#F4CB1C;stroke-width:3.2343;stroke-linecap:round;stroke-linejoin:round;stroke-miterlimit:10;" d="
					M728.231,472.511c-1.063,0.829-2.127,1.658-3.19,2.486"/>
				
					<path style="fill:none;stroke:#F4CB1C;stroke-width:3.2343;stroke-linecap:round;stroke-linejoin:round;stroke-miterlimit:10;" d="
					M737.632,472.819c-0.514,0.581-1.029,1.162-1.543,1.743"/>
				
					<path style="fill:none;stroke:#F4CB1C;stroke-width:3.2343;stroke-linecap:round;stroke-linejoin:round;stroke-miterlimit:10;" d="
					M755.541,453.588c-0.735,0.83-1.469,1.66-2.204,2.49"/>
				
					<path style="fill:none;stroke:#F4CB1C;stroke-width:3.2343;stroke-linecap:round;stroke-linejoin:round;stroke-miterlimit:10;" d="
					M719.02,484.325c-1.121,0.932-2.242,1.864-3.363,2.796"/>
				
					<path style="fill:none;stroke:#F4CB1C;stroke-width:3.2343;stroke-linecap:round;stroke-linejoin:round;stroke-miterlimit:10;" d="
					M730.262,491.163c-0.599,0.505-1.199,1.01-1.798,1.515"/>
				
					<path style="fill:none;stroke:#F4CB1C;stroke-width:3.2343;stroke-linecap:round;stroke-linejoin:round;stroke-miterlimit:10;" d="
					M710.146,493.346c-0.827,0.746-1.654,1.492-2.482,2.238"/>
				
					<path style="fill:none;stroke:#F4CB1C;stroke-width:3.2343;stroke-linecap:round;stroke-linejoin:round;stroke-miterlimit:10;" d="
					M713.565,502.601c-0.528,0.42-1.055,0.84-1.583,1.26"/>
				
					<path style="fill:none;stroke:#F4CB1C;stroke-width:3.2343;stroke-linecap:round;stroke-linejoin:round;stroke-miterlimit:10;" d="
					M700.844,479.784c-1.198,1.159-2.395,2.317-3.593,3.476"/>
				
					<path style="fill:none;stroke:#F4CB1C;stroke-width:3.2343;stroke-linecap:round;stroke-linejoin:round;stroke-miterlimit:10;" d="
					M692.184,477.003c-0.22,0.249-0.441,0.498-0.661,0.747"/>
				
					<path style="fill:none;stroke:#F4CB1C;stroke-width:3.2343;stroke-linecap:round;stroke-linejoin:round;stroke-miterlimit:10;" d="
					M704.421,465.185c-0.661,0.747-1.322,1.494-1.984,2.241"/>
				
					<path style="fill:none;stroke:#F4CB1C;stroke-width:3.2343;stroke-linecap:round;stroke-linejoin:round;stroke-miterlimit:10;" d="
					M712.868,468.224c-0.893,0.837-1.787,1.674-2.68,2.511"/>
				
					<path style="fill:none;stroke:#F4CB1C;stroke-width:3.2343;stroke-linecap:round;stroke-linejoin:round;stroke-miterlimit:10;" d="
					M725.527,455.889c-0.882,0.996-1.763,1.992-2.645,2.988"/>
				
					<path style="fill:none;stroke:#F4CB1C;stroke-width:3.2343;stroke-linecap:round;stroke-linejoin:round;stroke-miterlimit:10;" d="
					M716.523,455.024c-0.441,0.498-0.882,0.996-1.322,1.494"/>
				
					<path style="fill:none;stroke:#F4CB1C;stroke-width:3.2343;stroke-linecap:round;stroke-linejoin:round;stroke-miterlimit:10;" d="
					M732.517,442.979c-0.638,0.913-1.277,1.825-1.916,2.738"/>
				
					<path style="fill:none;stroke:#F4CB1C;stroke-width:3.2343;stroke-linecap:round;stroke-linejoin:round;stroke-miterlimit:10;" d="
					M745.903,430.85c-0.499,1.261-1.223,2.432-2.128,3.442"/>
			</g>
			<g>
				<path style="fill:#236F62;" d="M-51.203,446.71c-1.906-9.63-3.202-19.57-1.512-29.24c1.69-9.67,6.744-19.131,15.142-24.215
					c6.685-4.047,13.397-10.686,34.444-4.992c10.744,2.906,20.114,10.356,24.725,20.486c4.611,10.13,5.071,21.781,3.092,32.733
					c-3.439,19.033-14.228,36.642-29.624,48.35c-4.136,3.145-8.761,5.942-13.91,6.636c-11.14,1.501-16.953-8.706-21.508-17.127
					C-45.836,469.207-48.976,457.961-51.203,446.71z"/>
				
					<path style="fill:none;stroke:#003C34;stroke-width:3.9502;stroke-linecap:round;stroke-linejoin:round;stroke-miterlimit:10;" d="
					M-10.252,395.677c6.637,31.841,3.579,65.637-8.666,95.769"/>
				
					<path style="fill:none;stroke:#003C34;stroke-width:3.9502;stroke-linecap:round;stroke-linejoin:round;stroke-miterlimit:10;" d="
					M-30.987,402.935c7.455,6.826,14.996,13.559,22.62,20.196c0.351,0.305,0.766,0.631,1.227,0.564
					c0.383-0.056,0.67-0.368,0.922-0.663c4.656-5.449,8.91-11.243,12.715-17.317"/>
				
					<path style="fill:none;stroke:#003C34;stroke-width:3.9502;stroke-linecap:round;stroke-linejoin:round;stroke-miterlimit:10;" d="
					M-43.752,415.955c11.768,10.514,23.982,20.528,36.599,30.005c7.067-9.242,14.134-18.484,21.2-27.727"/>
				
					<path style="fill:none;stroke:#003C34;stroke-width:3.9502;stroke-linecap:round;stroke-linejoin:round;stroke-miterlimit:10;" d="
					M-38.63,443.748c9.647,6.989,19.293,13.979,28.94,20.968c8.024-6.505,14.775-14.574,19.761-23.621"/>
				
					<path style="fill:none;stroke:#003C34;stroke-width:3.9502;stroke-linecap:round;stroke-linejoin:round;stroke-miterlimit:10;" d="
					M-32.937,468.043c5.321,5.512,10.641,11.023,15.962,16.534c0.266,0.275,0.548,0.561,0.915,0.67
					c0.479,0.143,0.988-0.046,1.449-0.238c6.145-2.562,11.79-6.317,16.526-10.996"/>
			</g>
			<g>
				<path style="fill:#078A44;" d="M466.857,475.504c1.554-10.708,3.855-21.515,9.162-30.945c5.306-9.43,14.033-17.408,24.627-19.61
					c8.433-1.752,17.846-6.189,37.632,7.456c10.1,6.965,17.104,18.147,18.178,30.368c1.074,12.221-2.725,24.499-8.802,35.156
					c-10.562,18.52-28.239,32.861-48.538,39.378c-5.453,1.751-11.286,2.96-16.893,1.791c-12.129-2.529-14.424-15.272-16.068-25.696
					C464.176,500.855,465.041,488.014,466.857,475.504z"/>
				
					<path style="fill:none;stroke:#003C34;stroke-width:4.3541;stroke-linecap:round;stroke-linejoin:round;stroke-miterlimit:10;" d="
					M528.152,437.495c-4.79,35.53-20.374,69.533-44.163,96.356"/>
				
					<path style="fill:none;stroke:#003C34;stroke-width:4.3541;stroke-linecap:round;stroke-linejoin:round;stroke-miterlimit:10;" d="
					M503.937,437.427c5.243,9.831,10.609,19.597,16.096,29.294c0.253,0.446,0.565,0.937,1.068,1.037
					c0.419,0.083,0.832-0.137,1.201-0.351c6.84-3.954,13.388-8.414,19.572-13.331"/>
				
					<path style="fill:none;stroke:#003C34;stroke-width:4.3541;stroke-linecap:round;stroke-linejoin:round;stroke-miterlimit:10;" d="
					M485.89,446.274c8.371,15.247,17.39,30.139,27.025,44.621c10.737-7.012,21.475-14.024,32.213-21.035"/>
				
					<path style="fill:none;stroke:#003C34;stroke-width:4.3541;stroke-linecap:round;stroke-linejoin:round;stroke-miterlimit:10;" d="
					M481.012,477.041c7.461,10.805,14.921,21.611,22.382,32.416c10.728-3.815,20.706-9.724,29.209-17.297"/>
				
					<path style="fill:none;stroke:#003C34;stroke-width:4.3541;stroke-linecap:round;stroke-linejoin:round;stroke-miterlimit:10;" d="
					M478.011,504.381c3.507,7.682,7.014,15.363,10.521,23.044c0.175,0.384,0.364,0.785,0.705,1.033
					c0.445,0.324,1.043,0.315,1.593,0.285c7.327-0.406,14.573-2.238,21.213-5.362"/>
			</g>
			<g>
				<path style="fill:#236F62;" d="M420.683,510.091c-7.344-6.514-14.391-13.643-18.896-22.364
					c-4.505-8.722-6.206-19.313-2.597-28.441c2.873-7.267,4.2-16.614,24.403-24.816c10.313-4.187,22.28-3.926,32.081,1.349
					c9.801,5.275,17.217,14.272,22.268,24.19c8.779,17.235,10.844,37.782,5.67,56.419c-1.39,5.007-3.38,10.031-7.06,13.7
					c-7.961,7.936-18.765,3.326-27.487-0.621C438.568,524.754,429.263,517.701,420.683,510.091z"/>
				
					<path style="fill:none;stroke:#003C34;stroke-width:3.9502;stroke-linecap:round;stroke-linejoin:round;stroke-miterlimit:10;" d="
					M422.406,444.682c24.551,21.335,42.565,50.092,51.049,81.491"/>
				
					<path style="fill:none;stroke:#003C34;stroke-width:3.9502;stroke-linecap:round;stroke-linejoin:round;stroke-miterlimit:10;" d="
					M410.29,463.007c10.066,0.923,20.143,1.721,30.229,2.392c0.464,0.031,0.992,0.039,1.318-0.293
					c0.271-0.276,0.31-0.699,0.333-1.085c0.41-7.156,0.291-14.342-0.355-21.481"/>
				
					<path style="fill:none;stroke:#003C34;stroke-width:3.9502;stroke-linecap:round;stroke-linejoin:round;stroke-miterlimit:10;" d="
					M408.005,481.097c15.731,1.251,31.515,1.832,47.295,1.743c0.034-11.634,0.068-23.269,0.102-34.903"/>
				
					<path style="fill:none;stroke:#003C34;stroke-width:3.9502;stroke-linecap:round;stroke-linejoin:round;stroke-miterlimit:10;" d="
					M428.901,500.125c11.909-0.272,23.819-0.545,35.728-0.818c2.453-10.034,2.944-20.544,1.44-30.763"/>
				
					<path style="fill:none;stroke:#003C34;stroke-width:3.9502;stroke-linecap:round;stroke-linejoin:round;stroke-miterlimit:10;" d="
					M448.133,516.023c7.571,1.169,15.142,2.337,22.713,3.506c0.378,0.058,0.776,0.115,1.134-0.02
					c0.468-0.176,0.759-0.634,1.009-1.066c3.343-5.758,5.564-12.164,6.504-18.755"/>
			</g>
			<g>
				<g>
					<path style="fill:#236F62;" d="M788.897,403.121c-6.219,5.565-15.453,6.772-23.3,4.504s-14.444-7.575-19.835-13.666
						c2.865-1.737,7.573-6.981,8.7-10.132c0,0-8.997,3.015-12.436,3.158c-4.844,0.202-8.216-4.413-10.696-8.522
						c-2.351-3.895-4.702-7.789-7.053-11.684c5.478-3.17,10.349-7.426,14.238-12.442c-7.245,0.928-14.411,2.627-21.339,5.059
						c-15.231-21.74-9.624-64.764-7.264-69.684c16.269,1.931,31.838,7.707,45.697,16.209c1.192,0.731,2.468,1.62,2.763,2.999
						c0.216,1.009-0.151,2.057-0.512,3.038c-1.336,3.633-2.672,7.265-4.008,10.898c3.51-2.96,6.779-6.21,9.763-9.703
						c6.312,3.867,12.221,8.376,17.613,13.44c0.577,0.542,1.171,1.127,1.388,1.895c0.276,0.976-0.113,2.021-0.497,2.978
						c-1.64,4.095-3.281,8.19-4.921,12.284c3.623-4.308,8.617-9.088,13.916-7.586c2.119,0.6,3.804,2.142,5.389,3.655
						c3.686,3.518,7.274,7.138,10.76,10.855c-3.595,5.723-7.463,11.278-11.584,16.64c5.938-3.81,11.877-7.62,17.816-11.43
						c5.344,7.923,4.353,19.093-0.562,27.557C808.017,391.905,796.195,396.59,788.897,403.121z"/>
				</g>
				
					<path style="fill:none;stroke:#FFF9ED;stroke-width:2.7466;stroke-linecap:round;stroke-linejoin:round;stroke-miterlimit:10;" d="
					M739.619,328.488c1.241,3.561,3.39,6.778,6.19,9.268"/>
				
					<path style="fill:none;stroke:#FFF9ED;stroke-width:2.7466;stroke-linecap:round;stroke-linejoin:round;stroke-miterlimit:10;" d="
					M727.796,339.518c2.03,2.856,4.061,5.712,6.091,8.568"/>
				
					<path style="fill:none;stroke:#FFF9ED;stroke-width:2.7466;stroke-linecap:round;stroke-linejoin:round;stroke-miterlimit:10;" d="
					M748.398,363.569c1.901,1.66,3.802,3.32,5.703,4.979"/>
				
					<path style="fill:none;stroke:#FFF9ED;stroke-width:2.7466;stroke-linecap:round;stroke-linejoin:round;stroke-miterlimit:10;" d="
					M746.088,348.965c1.536,2.345,3.073,4.69,4.61,7.035"/>
				
					<path style="fill:none;stroke:#FFF9ED;stroke-width:2.7466;stroke-linecap:round;stroke-linejoin:round;stroke-miterlimit:10;" d="
					M760.156,356.707c2.02,2.334,4.04,4.667,6.06,7.001"/>
				
					<path style="fill:none;stroke:#FFF9ED;stroke-width:2.7466;stroke-linecap:round;stroke-linejoin:round;stroke-miterlimit:10;" d="
					M761.965,340.648c0.956,1.095,1.912,2.191,2.868,3.286"/>
				
					<path style="fill:none;stroke:#FFF9ED;stroke-width:2.7466;stroke-linecap:round;stroke-linejoin:round;stroke-miterlimit:10;" d="
					M764.953,324.882c2.362,2.507,4.725,5.014,7.087,7.521"/>
				
					<path style="fill:none;stroke:#FFF9ED;stroke-width:2.7466;stroke-linecap:round;stroke-linejoin:round;stroke-miterlimit:10;" d="
					M729.535,309.532c1.939,1.352,3.627,3.057,4.962,5.01"/>
				
					<path style="fill:none;stroke:#FFF9ED;stroke-width:2.7466;stroke-linecap:round;stroke-linejoin:round;stroke-miterlimit:10;" d="
					M717.072,313.968c1.396,1.906,2.386,4.115,2.887,6.444"/>
				
					<path style="fill:none;stroke:#FFF9ED;stroke-width:2.7466;stroke-linecap:round;stroke-linejoin:round;stroke-miterlimit:10;" d="
					M713.982,335.614c0.708,1.374,1.416,2.747,2.125,4.121"/>
				
					<path style="fill:none;stroke:#FFF9ED;stroke-width:2.7466;stroke-linecap:round;stroke-linejoin:round;stroke-miterlimit:10;" d="
					M744.322,373.996c1.082,1.223,2.165,2.445,3.247,3.668"/>
				
					<path style="fill:none;stroke:#FFF9ED;stroke-width:2.7466;stroke-linecap:round;stroke-linejoin:round;stroke-miterlimit:10;" d="
					M763.93,391.83c2.388,2.478,5.096,4.644,8.038,6.432"/>
				
					<path style="fill:none;stroke:#FFF9ED;stroke-width:2.7466;stroke-linecap:round;stroke-linejoin:round;stroke-miterlimit:10;" d="
					M761.518,376.499c1.629,1.423,3.259,2.845,4.888,4.268"/>
				
					<path style="fill:none;stroke:#FFF9ED;stroke-width:2.7466;stroke-linecap:round;stroke-linejoin:round;stroke-miterlimit:10;" d="
					M786.065,378.813c2.234,1.558,4.208,3.484,5.821,5.682"/>
				
					<path style="fill:none;stroke:#FFF9ED;stroke-width:2.7466;stroke-linecap:round;stroke-linejoin:round;stroke-miterlimit:10;" d="
					M786.171,358.952c0.543,0.474,1.086,0.948,1.629,1.423"/>
				
					<path style="fill:none;stroke:#FFF9ED;stroke-width:2.7466;stroke-linecap:round;stroke-linejoin:round;stroke-miterlimit:10;" d="
					M775.608,364.473c2.187,2.155,4.373,4.31,6.56,6.465"/>
				
					<path style="fill:none;stroke:#FFF9ED;stroke-width:2.7466;stroke-linecap:round;stroke-linejoin:round;stroke-miterlimit:10;" d="
					M788.672,347.866c1.222,1.067,2.444,2.134,3.666,3.201"/>
				
					<path style="fill:none;stroke:#FFF9ED;stroke-width:2.7466;stroke-linecap:round;stroke-linejoin:round;stroke-miterlimit:10;" d="
					M805.14,371.788c0.311,1.012,0.621,2.024,0.932,3.036"/>
				
					<path style="fill:none;stroke:#FFF9ED;stroke-width:2.7466;stroke-linecap:round;stroke-linejoin:round;stroke-miterlimit:10;" d="
					M781.631,390.449c0.687,0.855,1.374,1.711,2.061,2.567"/>
				
					<path style="fill:none;stroke:#FFF9ED;stroke-width:2.7466;stroke-linecap:round;stroke-linejoin:round;stroke-miterlimit:10;" d="
					M745.365,307.842c1.086,0.949,2.173,1.897,3.259,2.845"/>
			</g>
		</g>
		<g style="clip-path:url(#SVGID_00000130612837528932017290000010733861731999691431_);">
			<g>
				
					<path style="fill:none;stroke:#FFF9ED;stroke-width:1.9815;stroke-linecap:round;stroke-linejoin:round;stroke-miterlimit:10;" d="
					M275.64,458.618c2.769,11.028,5.143,22.474,3.361,33.704c-0.769,4.842-2.307,9.64-1.975,14.531
					c0.097,1.431,0.447,3.003,1.62,3.829c0.697,0.492,1.582,0.635,2.435,0.652c3.744,0.073,7.428-2.249,8.977-5.659
					c1.288-2.835,1.134-6.087,0.943-9.195c-1.045-16.974-2.484-34.079-7.406-50.357c-0.593-1.962-1.254-3.945-2.451-5.609
					c-2.533-3.52-6.966-5.015-11.106-6.306c-0.995-0.31-1.823,5.275-1.718,5.891c0.278,1.637,1.486,2.676,2.308,4.064
					C273.204,448.51,274.422,453.766,275.64,458.618z"/>
				
					<path style="fill:none;stroke:#FFF9ED;stroke-width:1.9815;stroke-linecap:round;stroke-linejoin:round;stroke-miterlimit:10;" d="
					M277.823,443.78c3.494,7.199,5.331,15.197,5.327,23.199"/>
				<path style="fill:#C14627;" d="M257.212,411.018c1.834-1.962,4.097-3.61,6.7-4.272c3.977-1.012,8.27,0.43,11.536,2.915
					s5.672,5.913,7.904,9.356c3.122,4.814,6.129,10.467,4.711,16.027c-0.966,3.789-3.905,6.832-7.286,8.796
					s-7.209,2.995-10.987,4.005c-2.214,0.592-4.511,1.188-6.771,0.806c-3.065-0.519-5.599-2.808-7.169-5.491
					C250.301,433.682,249.357,419.421,257.212,411.018z"/>
				<path style="fill:#FFF9ED;" d="M256.462,430.573c0.212,0.28,0.449,0.554,0.761,0.715c0.323,0.167,0.697,0.198,1.06,0.225
					c1.148,0.088,2.365,0.163,3.389-0.365c1.398-0.721,2.061-2.426,1.99-3.997c-0.085-1.886-1.097-3.708-2.654-4.776
					C254.59,417.973,253.413,426.541,256.462,430.573z"/>
				<path style="fill:#FFF9ED;" d="M264.802,417.922c0.15,0.198,0.317,0.392,0.538,0.505c0.228,0.118,0.493,0.14,0.749,0.159
					c0.811,0.062,1.671,0.115,2.395-0.258c0.988-0.509,1.456-1.714,1.406-2.824c-0.06-1.333-0.775-2.62-1.875-3.375
					C263.479,409.019,262.648,415.073,264.802,417.922z"/>
				<path style="fill:#FFF9ED;" d="M282.108,433.061c0.132,0.175,0.28,0.346,0.475,0.446c0.202,0.104,0.435,0.123,0.661,0.14
					c0.716,0.055,1.475,0.102,2.113-0.228c0.872-0.449,1.285-1.513,1.241-2.492c-0.053-1.176-0.684-2.312-1.655-2.978
					C280.941,425.204,280.208,430.546,282.108,433.061z"/>
				<path style="fill:#FFF9ED;" d="M275.231,421.618c0.09,0.119,0.191,0.236,0.324,0.305c0.138,0.071,0.297,0.084,0.451,0.096
					c0.489,0.037,1.007,0.069,1.442-0.155c0.595-0.307,0.877-1.033,0.847-1.701c-0.036-0.803-0.467-1.578-1.13-2.033
					C274.435,416.255,273.934,419.901,275.231,421.618z"/>
				<path style="fill:#FFF9ED;" d="M261.689,445.142c0.15,0.198,0.317,0.392,0.538,0.506c0.228,0.118,0.493,0.14,0.749,0.159
					c0.811,0.062,1.671,0.115,2.395-0.258c0.988-0.509,1.456-1.714,1.406-2.824c-0.06-1.333-0.775-2.62-1.875-3.375
					C260.367,436.24,259.535,442.293,261.689,445.142z"/>
				<path style="fill:#FFF9ED;" d="M269.116,436.466c0.247,0.327,0.525,0.648,0.889,0.836c0.378,0.195,0.815,0.231,1.238,0.263
					c1.342,0.103,2.764,0.19,3.96-0.427c1.633-0.842,2.408-2.835,2.325-4.67c-0.099-2.203-1.282-4.332-3.101-5.58
					C266.929,421.745,265.554,431.755,269.116,436.466z"/>
				
					<path style="fill:none;stroke:#FFF9ED;stroke-width:1.9815;stroke-linecap:round;stroke-linejoin:round;stroke-miterlimit:10;" d="
					M284.101,481.514c0.73,7.396,0.372,14.899-1.059,22.192"/>
			</g>
			<g>
				
					<path style="fill:none;stroke:#FFF9ED;stroke-width:1.3164;stroke-linecap:round;stroke-linejoin:round;stroke-miterlimit:10;" d="
					M583.389,494.988c-0.85,7.507-2.043,15.18-5.771,21.751c-1.608,2.833-3.684,5.458-4.618,8.579
					c-0.273,0.913-0.422,1.972,0.114,2.76c0.319,0.468,0.836,0.764,1.363,0.974c2.312,0.919,5.145,0.333,6.904-1.426
					c1.462-1.463,2.125-3.522,2.731-5.501c3.31-10.803,6.404-21.779,7.14-33.054c0.089-1.359,0.14-2.747-0.216-4.061
					c-0.755-2.781-3.163-4.745-5.438-6.513c-0.547-0.425-2.364,2.856-2.443,3.264c-0.209,1.083,0.3,2.012,0.488,3.067
					C584.232,488.133,583.763,491.686,583.389,494.988z"/>
				
					<path style="fill:none;stroke:#FFF9ED;stroke-width:1.3164;stroke-linecap:round;stroke-linejoin:round;stroke-miterlimit:10;" d="
					M588.208,486.267c0.494,5.293-0.229,10.697-2.098,15.674"/>
				<path style="fill:#C14627;" d="M583.029,461.078c1.598-0.792,3.391-1.29,5.164-1.095c2.71,0.298,5.044,2.197,6.496,4.504
					c1.452,2.308,2.149,5.001,2.735,7.664c0.819,3.723,1.371,7.941-0.808,11.07c-1.485,2.132-4.023,3.339-6.584,3.772
					c-2.562,0.433-5.183,0.181-7.769-0.072c-1.515-0.148-3.084-0.313-4.4-1.078c-1.786-1.038-2.828-3.053-3.179-5.088
					C573.443,473.565,576.182,464.474,583.029,461.078z"/>
				<path style="fill:#FFF9ED;" d="M578.001,473.069c0.066,0.224,0.15,0.45,0.307,0.623c0.162,0.179,0.388,0.286,0.607,0.387
					c0.694,0.323,1.433,0.653,2.193,0.564c1.038-0.122,1.848-1.029,2.171-2.023c0.387-1.193,0.182-2.563-0.537-3.59
					C579.776,464.793,577.045,469.849,578.001,473.069z"/>
				<path style="fill:#FFF9ED;" d="M586.14,467.144c0.047,0.158,0.106,0.318,0.217,0.44c0.115,0.127,0.274,0.202,0.429,0.274
					c0.49,0.228,1.013,0.461,1.55,0.398c0.733-0.086,1.306-0.727,1.534-1.429c0.274-0.843,0.129-1.811-0.38-2.537
					C587.394,461.297,585.465,464.869,586.14,467.144z"/>
				<path style="fill:#FFF9ED;" d="M593.375,480.599c0.041,0.139,0.094,0.28,0.191,0.388c0.101,0.112,0.242,0.178,0.378,0.242
					c0.433,0.201,0.894,0.407,1.368,0.351c0.647-0.076,1.152-0.641,1.353-1.261c0.241-0.744,0.114-1.598-0.335-2.239
					C594.482,475.439,592.779,478.591,593.375,480.599z"/>
				<path style="fill:#FFF9ED;" d="M591.766,471.876c0.028,0.095,0.064,0.191,0.131,0.265c0.069,0.076,0.165,0.122,0.258,0.165
					c0.295,0.137,0.61,0.278,0.934,0.24c0.442-0.052,0.786-0.438,0.924-0.861c0.165-0.508,0.078-1.091-0.229-1.528
					C592.521,468.354,591.359,470.506,591.766,471.876z"/>
				<path style="fill:#FFF9ED;" d="M577.854,483.351c0.047,0.158,0.106,0.318,0.217,0.44c0.115,0.127,0.274,0.202,0.429,0.274
					c0.49,0.228,1.013,0.461,1.55,0.398c0.733-0.086,1.306-0.727,1.534-1.429c0.274-0.843,0.129-1.811-0.38-2.537
					C579.108,477.504,577.179,481.076,577.854,483.351z"/>
				<path style="fill:#FFF9ED;" d="M584.498,479.686c0.078,0.261,0.175,0.525,0.358,0.728c0.19,0.209,0.453,0.334,0.709,0.453
					c0.811,0.377,1.675,0.763,2.563,0.658c1.212-0.143,2.159-1.202,2.536-2.363c0.453-1.394,0.213-2.994-0.627-4.195
					C586.572,470.019,583.381,475.925,584.498,479.686z"/>
				
					<path style="fill:none;stroke:#FFF9ED;stroke-width:1.3164;stroke-linecap:round;stroke-linejoin:round;stroke-miterlimit:10;" d="
					M583.311,511.206c-1.271,4.771-3.244,9.355-5.836,13.558"/>
			</g>
			<g>
				<path style="fill:#F4CB1C;" d="M238.279,453.628c-2.167,0.395-4.431,0.823-6.167,2.18c-1.736,1.356-2.717,3.956-1.554,5.827
					c0.919,1.48,2.779,2.016,4.473,2.42c4.611,1.102,9.291,2.107,14.032,2.1c1.493-0.002,3.01-0.11,4.415-0.617
					c1.001-0.361,1.919-0.916,2.83-1.467c0.922-0.558,1.903-1.184,2.298-2.187c0.481-1.222-0.077-2.622-0.886-3.658
					c-1.98-2.533-5.61-3.967-8.589-4.88C245.617,452.271,241.803,452.986,238.279,453.628z"/>
				<path style="fill:#C14627;" d="M234.188,459.33c2.766-1.971,6.167-1.963,9.37-1.747c3.838,0.258,7.736,0.756,11.274,2.578
					c0.307,0.158,0.627,0.342,0.811,0.68c0.436,0.8-0.148,1.861-0.809,2.388c-1.365,1.089-3.08,1.261-4.713,1.299
					c-2.646,0.062-5.291-0.14-7.932-0.342c-2.766-0.211-5.568-0.431-8.198-1.489C232.16,461.962,232.933,460.224,234.188,459.33z"/>
				<path style="fill:#FFF9ED;" d="M244.302,460.676c-0.76-0.134-1.629,0.096-2.062,0.734c-0.445,0.656-0.328,1.53-0.15,2.302
					c0.349,1.513,0.867,2.983,1.219,4.495c1.311,5.62,0.209,11.76-2.975,16.573c-0.313,0.473-0.653,0.954-0.741,1.514
					c-0.14,0.89,0.422,1.784,1.189,2.256c0.767,0.473,1.7,0.595,2.601,0.602c1.313,0.01,2.628-0.202,3.872-0.623
					c0.985-0.334,1.978-0.846,2.515-1.737c0.554-0.919,0.524-2.062,0.477-3.134c-0.132-2.999-0.264-5.999-0.396-8.998
					c-0.098-2.225-0.197-4.461-0.646-6.642C248.665,465.397,247.41,461.223,244.302,460.676z"/>
				
					<path style="fill:none;stroke:#FFF9ED;stroke-width:0.7211;stroke-linecap:round;stroke-linejoin:round;stroke-miterlimit:10;" d="
					M238.763,459.634c1.482,0.756,2.779,1.869,3.751,3.219"/>
				
					<path style="fill:none;stroke:#FFF9ED;stroke-width:0.7211;stroke-linecap:round;stroke-linejoin:round;stroke-miterlimit:10;" d="
					M241.694,459.558c0.56,0.666,0.995,1.437,1.278,2.26"/>
				
					<path style="fill:none;stroke:#FFF9ED;stroke-width:0.7211;stroke-linecap:round;stroke-linejoin:round;stroke-miterlimit:10;" d="
					M236.34,461.513c2.075,0.247,4.102,0.889,5.94,1.883"/>
				
					<path style="fill:none;stroke:#FFF9ED;stroke-width:0.7211;stroke-linecap:round;stroke-linejoin:round;stroke-miterlimit:10;" d="
					M243.794,459.828c0.195,0.49,0.391,0.98,0.586,1.47"/>
				
					<path style="fill:none;stroke:#FFF9ED;stroke-width:0.7211;stroke-linecap:round;stroke-linejoin:round;stroke-miterlimit:10;" d="
					M245.143,462.399c0.466-0.856,0.88-1.74,1.241-2.645"/>
				
					<path style="fill:none;stroke:#FFF9ED;stroke-width:0.7211;stroke-linecap:round;stroke-linejoin:round;stroke-miterlimit:10;" d="
					M251.791,459.49c-1.044,0.449-2.092,0.9-3.058,1.498c-0.966,0.599-1.853,1.355-2.466,2.312c2.054-1.478,5.38-1.731,7.869-2.19"
					/>
				
					<path style="fill:none;stroke:#FFF9ED;stroke-width:0.7211;stroke-linecap:round;stroke-linejoin:round;stroke-miterlimit:10;" d="
					M249.348,463.58c1.077-0.344,2.186-0.586,3.309-0.72"/>
				
					<path style="fill:none;stroke:#FFF9ED;stroke-width:0.7211;stroke-linecap:round;stroke-linejoin:round;stroke-miterlimit:10;" d="
					M234.345,461.696c0.331,0.279,0.711,0.498,1.119,0.644"/>
				
					<path style="fill:none;stroke:#FFF9ED;stroke-width:0.7211;stroke-linecap:round;stroke-linejoin:round;stroke-miterlimit:10;" d="
					M236.049,459.922c0.416,0.172,0.832,0.344,1.248,0.516"/>
				
					<path style="fill:none;stroke:#F4CB1C;stroke-width:0.6627;stroke-linecap:round;stroke-linejoin:round;stroke-miterlimit:10;" d="
					M247.151,467.692c1.773,3.872,1.537,8.324,1.266,12.574"/>
				
					<path style="fill:none;stroke:#F4CB1C;stroke-width:0.6627;stroke-linecap:round;stroke-linejoin:round;stroke-miterlimit:10;" d="
					M246.581,475.707c-0.062,1.572-0.191,3.141-0.388,4.701"/>
				
					<path style="fill:none;stroke:#F4CB1C;stroke-width:0.6627;stroke-linecap:round;stroke-linejoin:round;stroke-miterlimit:10;" d="
					M243.641,483.941c-0.278,0.854-0.557,1.708-0.835,2.562"/>
				
					<path style="fill:none;stroke:#F4CB1C;stroke-width:0.6627;stroke-linecap:round;stroke-linejoin:round;stroke-miterlimit:10;" d="
					M244.352,465.349c0.243,0.506,0.393,1.056,0.44,1.615"/>
			</g>
			<g>
				<path style="fill:#F4CB1C;" d="M350.757,458.017c-2.899,0.529-5.927,1.101-8.249,2.915c-2.322,1.814-3.634,5.292-2.079,7.795
					c1.229,1.979,3.717,2.696,5.983,3.238c6.168,1.474,12.428,2.818,18.77,2.81c1.998-0.003,4.026-0.147,5.905-0.825
					c1.339-0.483,2.568-1.225,3.786-1.962c1.233-0.746,2.546-1.584,3.074-2.925c0.644-1.635-0.103-3.508-1.185-4.892
					c-2.648-3.388-7.505-5.306-11.489-6.527C360.572,456.202,355.47,457.158,350.757,458.017z"/>
				<path style="fill:#C14627;" d="M345.283,465.643c3.7-2.636,8.249-2.626,12.534-2.337c5.134,0.346,10.348,1.011,15.08,3.449
					c0.411,0.212,0.839,0.458,1.085,0.91c0.583,1.07-0.198,2.489-1.082,3.194c-1.825,1.457-4.12,1.687-6.305,1.738
					c-3.54,0.083-7.078-0.187-10.611-0.457c-3.7-0.283-7.447-0.577-10.966-1.992C342.571,469.164,343.605,466.839,345.283,465.643z"
					/>
				<path style="fill:#FFF9ED;" d="M358.813,467.444c-1.016-0.179-2.179,0.128-2.758,0.982c-0.595,0.877-0.439,2.047-0.201,3.079
					c0.467,2.024,1.159,3.99,1.631,6.013c1.754,7.517,0.28,15.732-3.979,22.17c-0.418,0.632-0.874,1.277-0.992,2.026
					c-0.187,1.191,0.564,2.386,1.59,3.018c1.026,0.633,2.274,0.795,3.479,0.805c1.757,0.014,3.516-0.27,5.179-0.834
					c1.318-0.447,2.646-1.131,3.364-2.323c0.741-1.229,0.701-2.758,0.637-4.191c-0.177-4.012-0.353-8.024-0.53-12.036
					c-0.131-2.976-0.264-5.967-0.864-8.885C364.65,473.76,362.971,468.176,358.813,467.444z"/>
				
					<path style="fill:none;stroke:#FFF9ED;stroke-width:0.9646;stroke-linecap:round;stroke-linejoin:round;stroke-miterlimit:10;" d="
					M351.403,466.051c1.982,1.011,3.717,2.5,5.018,4.305"/>
				
					<path style="fill:none;stroke:#FFF9ED;stroke-width:0.9646;stroke-linecap:round;stroke-linejoin:round;stroke-miterlimit:10;" d="
					M355.324,465.948c0.749,0.891,1.332,1.922,1.709,3.023"/>
				
					<path style="fill:none;stroke:#FFF9ED;stroke-width:0.9646;stroke-linecap:round;stroke-linejoin:round;stroke-miterlimit:10;" d="
					M348.162,468.564c2.776,0.33,5.487,1.189,7.946,2.519"/>
				
					<path style="fill:none;stroke:#FFF9ED;stroke-width:0.9646;stroke-linecap:round;stroke-linejoin:round;stroke-miterlimit:10;" d="
					M358.133,466.309c0.261,0.655,0.523,1.311,0.784,1.966"/>
				
					<path style="fill:none;stroke:#FFF9ED;stroke-width:0.9646;stroke-linecap:round;stroke-linejoin:round;stroke-miterlimit:10;" d="
					M359.939,469.749c0.623-1.145,1.178-2.327,1.659-3.538"/>
				
					<path style="fill:none;stroke:#FFF9ED;stroke-width:0.9646;stroke-linecap:round;stroke-linejoin:round;stroke-miterlimit:10;" d="
					M368.831,465.858c-1.396,0.6-2.798,1.204-4.09,2.004c-1.292,0.801-2.479,1.812-3.299,3.092c2.748-1.977,7.197-2.315,10.526-2.93
					"/>
				
					<path style="fill:none;stroke:#FFF9ED;stroke-width:0.9646;stroke-linecap:round;stroke-linejoin:round;stroke-miterlimit:10;" d="
					M365.563,471.329c1.44-0.46,2.924-0.783,4.426-0.964"/>
				
					<path style="fill:none;stroke:#FFF9ED;stroke-width:0.9646;stroke-linecap:round;stroke-linejoin:round;stroke-miterlimit:10;" d="
					M345.494,468.809c0.442,0.373,0.952,0.666,1.496,0.861"/>
				
					<path style="fill:none;stroke:#FFF9ED;stroke-width:0.9646;stroke-linecap:round;stroke-linejoin:round;stroke-miterlimit:10;" d="
					M347.773,466.435c0.557,0.23,1.113,0.46,1.67,0.69"/>
				
					<path style="fill:none;stroke:#F4CB1C;stroke-width:0.8865;stroke-linecap:round;stroke-linejoin:round;stroke-miterlimit:10;" d="
					M362.624,476.829c2.371,5.179,2.056,11.135,1.694,16.82"/>
				
					<path style="fill:none;stroke:#F4CB1C;stroke-width:0.8865;stroke-linecap:round;stroke-linejoin:round;stroke-miterlimit:10;" d="
					M361.862,487.551c-0.083,2.102-0.256,4.201-0.52,6.288"/>
				
					<path style="fill:none;stroke:#F4CB1C;stroke-width:0.8865;stroke-linecap:round;stroke-linejoin:round;stroke-miterlimit:10;" d="
					M357.93,498.565c-0.372,1.143-0.745,2.285-1.117,3.428"/>
				
					<path style="fill:none;stroke:#F4CB1C;stroke-width:0.8865;stroke-linecap:round;stroke-linejoin:round;stroke-miterlimit:10;" d="
					M358.88,473.695c0.325,0.676,0.526,1.413,0.589,2.161"/>
			</g>
		</g>
		<g style="clip-path:url(#SVGID_00000130612837528932017290000010733861731999691431_);">
			<g>
				<path style="fill:#FFF9ED;" d="M87.933,188.693c-1.608,2.053-3.011,4.266-4.181,6.597c-0.946,1.886-1.755,3.927-1.666,6.035
					c0.089,2.108,1.279,4.291,3.275,4.976c2.459,0.844,5.202-0.892,6.392-3.203s1.215-5.024,1.215-7.623
					c0-3.91,0.404-8.144-0.263-11.952C90.571,184.27,89.456,186.749,87.933,188.693z"/>
				<path style="fill:#FFF9ED;" d="M63.524,207.215c-1.608,2.053-3.011,4.266-4.181,6.597c-0.946,1.886-1.755,3.927-1.666,6.035
					c0.089,2.108,1.279,4.291,3.275,4.976c2.458,0.844,5.202-0.892,6.392-3.203c1.189-2.311,1.215-5.024,1.215-7.623
					c0-3.91,0.404-8.144-0.263-11.952C66.163,202.792,65.048,205.271,63.524,207.215z"/>
				<path style="fill:#FFF9ED;" d="M98.651,217.145c-1.608,2.053-3.011,4.266-4.181,6.597c-0.946,1.886-1.755,3.927-1.666,6.035
					c0.089,2.108,1.279,4.291,3.275,4.976c2.459,0.844,5.202-0.892,6.392-3.203c1.189-2.311,1.215-5.024,1.215-7.624
					c0-3.91,0.404-8.144-0.263-11.952C101.29,212.723,100.175,215.202,98.651,217.145z"/>
				<path style="fill:#FFF9ED;" d="M49.293,182.221c-0.835,1.065-1.563,2.214-2.169,3.423c-0.491,0.979-0.91,2.038-0.864,3.132
					c0.046,1.094,0.664,2.227,1.699,2.582c1.276,0.438,2.7-0.463,3.317-1.662c0.617-1.199,0.631-2.607,0.63-3.956
					c0-2.029,0.21-4.226-0.137-6.202C50.662,179.926,50.084,181.213,49.293,182.221z"/>
				<path style="fill:#FFF9ED;" d="M76.433,174.033c-0.835,1.065-1.563,2.214-2.169,3.423c-0.491,0.979-0.91,2.038-0.864,3.132
					c0.046,1.094,0.664,2.227,1.699,2.582c1.276,0.438,2.7-0.463,3.317-1.662c0.617-1.199,0.631-2.607,0.63-3.956
					c0-2.029,0.21-4.226-0.137-6.202C77.802,171.738,77.223,173.025,76.433,174.033z"/>
				<path style="fill:#FFF9ED;" d="M81.292,218.393c-0.835,1.065-1.563,2.214-2.169,3.423c-0.491,0.979-0.91,2.038-0.864,3.132
					c0.046,1.094,0.664,2.227,1.699,2.582c1.276,0.438,2.7-0.463,3.317-1.662c0.617-1.199,0.631-2.607,0.63-3.956
					c0-2.029,0.21-4.226-0.137-6.202C82.661,216.098,82.082,217.384,81.292,218.393z"/>
				<path style="fill:#FFF9ED;" d="M56.392,247.411c-0.835,1.065-1.563,2.214-2.169,3.423c-0.491,0.979-0.91,2.038-0.864,3.132
					c0.046,1.094,0.664,2.226,1.699,2.582c1.276,0.438,2.7-0.463,3.317-1.662c0.617-1.199,0.631-2.607,0.63-3.956
					c0-2.029,0.21-4.226-0.137-6.202C57.761,245.116,57.183,246.402,56.392,247.411z"/>
				<path style="fill:#FFF9ED;" d="M52.288,193.863c-1.224,1.562-2.291,3.246-3.181,5.02c-0.72,1.435-1.335,2.988-1.267,4.592
					c0.067,1.604,0.973,3.265,2.492,3.786c1.871,0.642,3.958-0.679,4.863-2.437c0.905-1.758,0.925-3.823,0.924-5.8
					c0-2.975,0.307-6.196-0.2-9.093C54.296,190.498,53.447,192.384,52.288,193.863z"/>
				<path style="fill:#FFF9ED;" d="M119.019,206.506c-0.835,1.065-1.563,2.214-2.169,3.423c-0.491,0.979-0.91,2.038-0.865,3.132
					c0.046,1.094,0.664,2.227,1.7,2.582c1.276,0.438,2.7-0.463,3.317-1.662c0.617-1.199,0.631-2.607,0.63-3.956
					c0-2.029,0.21-4.226-0.137-6.202C120.388,204.21,119.81,205.497,119.019,206.506z"/>
				<path style="fill:#FFF9ED;" d="M42.23,223.068c-0.835,1.065-1.563,2.214-2.169,3.423c-0.491,0.979-0.91,2.038-0.864,3.132
					c0.046,1.094,0.664,2.227,1.699,2.582c1.276,0.438,2.7-0.463,3.317-1.662c0.617-1.199,0.631-2.607,0.63-3.956
					c0-2.029,0.21-4.226-0.136-6.202C43.599,220.773,43.02,222.059,42.23,223.068z"/>
				<path style="fill:#FFF9ED;" d="M81.434,240.358c-0.835,1.065-1.563,2.214-2.169,3.423c-0.491,0.979-0.91,2.038-0.865,3.132
					c0.046,1.094,0.664,2.227,1.7,2.582c1.276,0.438,2.7-0.463,3.317-1.662c0.617-1.199,0.631-2.607,0.63-3.956
					c0-2.029,0.21-4.226-0.137-6.202C82.803,238.063,82.224,239.349,81.434,240.358z"/>
			</g>
			<g>
				<path style="fill:#FFF9ED;" d="M663.819,66.905c-1.263,1.612-2.364,3.35-3.282,5.18c-0.743,1.481-1.378,3.083-1.308,4.738
					c0.07,1.655,1.004,3.369,2.571,3.907c1.93,0.662,4.084-0.7,5.018-2.515c0.934-1.814,0.954-3.945,0.954-5.985
					c0-3.07,0.317-6.394-0.207-9.383C665.891,63.433,665.016,65.379,663.819,66.905z"/>
				<path style="fill:#FFF9ED;" d="M644.656,81.447c-1.263,1.612-2.364,3.35-3.282,5.18c-0.743,1.481-1.378,3.083-1.308,4.738
					c0.07,1.655,1.004,3.369,2.571,3.907c1.93,0.662,4.084-0.7,5.018-2.515c0.934-1.814,0.954-3.945,0.954-5.985
					c0-3.07,0.317-6.394-0.207-9.383C646.728,77.975,645.852,79.921,644.656,81.447z"/>
				<path style="fill:#FFF9ED;" d="M672.235,89.244c-1.263,1.612-2.364,3.35-3.282,5.18c-0.743,1.481-1.378,3.083-1.308,4.738
					c0.07,1.655,1.004,3.369,2.571,3.906c1.93,0.662,4.084-0.7,5.018-2.515c0.934-1.814,0.954-3.945,0.954-5.985
					c0-3.07,0.317-6.394-0.207-9.383C674.306,85.771,673.431,87.718,672.235,89.244z"/>
				<path style="fill:#FFF9ED;" d="M633.483,61.824c-0.655,0.836-1.227,1.738-1.703,2.688c-0.385,0.768-0.715,1.6-0.679,2.459
					c0.036,0.859,0.521,1.748,1.334,2.027c1.002,0.344,2.12-0.363,2.604-1.305c0.484-0.942,0.495-2.047,0.495-3.106
					c0-1.593,0.164-3.318-0.107-4.869C634.558,60.022,634.103,61.033,633.483,61.824z"/>
				<path style="fill:#FFF9ED;" d="M654.79,55.396c-0.655,0.836-1.227,1.738-1.703,2.688c-0.385,0.768-0.715,1.6-0.679,2.459
					c0.036,0.859,0.521,1.748,1.334,2.027c1.002,0.344,2.12-0.363,2.604-1.305c0.484-0.942,0.495-2.047,0.495-3.106
					c0-1.593,0.165-3.318-0.107-4.869C655.865,53.594,655.411,54.604,654.79,55.396z"/>
				<path style="fill:#FFF9ED;" d="M658.606,90.223c-0.655,0.836-1.227,1.738-1.703,2.688c-0.385,0.768-0.715,1.6-0.679,2.459
					c0.036,0.859,0.521,1.748,1.334,2.027c1.001,0.344,2.119-0.363,2.604-1.305c0.484-0.942,0.495-2.047,0.495-3.106
					c0-1.593,0.165-3.318-0.107-4.869C659.681,88.422,659.226,89.432,658.606,90.223z"/>
				<path style="fill:#FFF9ED;" d="M639.056,113.006c-0.655,0.836-1.227,1.738-1.703,2.688c-0.385,0.768-0.715,1.6-0.679,2.459
					c0.036,0.859,0.521,1.748,1.334,2.027c1.002,0.344,2.12-0.363,2.604-1.305c0.484-0.942,0.495-2.047,0.495-3.106
					c0-1.593,0.165-3.318-0.107-4.869C640.131,111.204,639.677,112.214,639.056,113.006z"/>
				<path style="fill:#FFF9ED;" d="M635.834,70.965c-0.961,1.226-1.799,2.549-2.497,3.941c-0.565,1.127-1.048,2.346-0.995,3.605
					c0.053,1.26,0.764,2.563,1.956,2.972c1.469,0.504,3.108-0.533,3.818-1.913c0.711-1.381,0.726-3.001,0.726-4.554
					c0-2.336,0.241-4.865-0.157-7.139C637.41,68.323,636.744,69.803,635.834,70.965z"/>
				<path style="fill:#FFF9ED;" d="M688.226,80.89c-0.655,0.836-1.227,1.738-1.703,2.688c-0.385,0.769-0.715,1.6-0.679,2.459
					c0.036,0.859,0.521,1.748,1.334,2.027c1.002,0.344,2.119-0.363,2.604-1.305c0.485-0.942,0.495-2.047,0.495-3.106
					c0-1.593,0.164-3.318-0.107-4.869C689.301,79.088,688.847,80.098,688.226,80.89z"/>
				<path style="fill:#FFF9ED;" d="M627.937,93.894c-0.655,0.836-1.227,1.738-1.703,2.688c-0.386,0.769-0.715,1.6-0.679,2.459
					c0.036,0.859,0.521,1.748,1.334,2.027c1.002,0.344,2.12-0.363,2.604-1.305c0.484-0.942,0.495-2.047,0.495-3.106
					c0-1.593,0.165-3.318-0.107-4.869C629.012,92.092,628.558,93.102,627.937,93.894z"/>
				<path style="fill:#FFF9ED;" d="M658.717,107.469c-0.655,0.836-1.227,1.738-1.703,2.688c-0.385,0.768-0.715,1.6-0.679,2.459
					c0.036,0.859,0.521,1.748,1.334,2.027c1.002,0.344,2.12-0.363,2.604-1.305c0.484-0.942,0.495-2.047,0.495-3.106
					c0-1.593,0.165-3.318-0.107-4.869C659.792,105.667,659.338,106.677,658.717,107.469z"/>
			</g>
			<g>
				<path style="fill:#FFF9ED;" d="M345.633,384.569c-1.263,1.612-2.364,3.35-3.282,5.18c-0.743,1.481-1.378,3.083-1.308,4.738
					c0.07,1.655,1.004,3.369,2.571,3.906c1.93,0.662,4.085-0.7,5.018-2.515c0.934-1.815,0.954-3.945,0.954-5.985
					c0-3.07,0.317-6.394-0.207-9.383C347.704,381.097,346.829,383.043,345.633,384.569z"/>
				<path style="fill:#FFF9ED;" d="M326.469,399.111c-1.263,1.612-2.364,3.349-3.282,5.18c-0.743,1.481-1.378,3.083-1.308,4.738
					c0.07,1.655,1.004,3.369,2.571,3.906c1.93,0.662,4.085-0.7,5.018-2.515c0.934-1.814,0.954-3.945,0.954-5.985
					c0-3.07,0.317-6.394-0.207-9.383C328.541,395.639,327.665,397.585,326.469,399.111z"/>
				<path style="fill:#FFF9ED;" d="M354.048,406.908c-1.263,1.611-2.364,3.349-3.282,5.179c-0.743,1.481-1.378,3.083-1.308,4.738
					c0.07,1.655,1.004,3.369,2.571,3.907c1.93,0.662,4.084-0.7,5.018-2.515c0.934-1.815,0.954-3.945,0.954-5.985
					c0-3.07,0.317-6.394-0.207-9.383C356.119,403.435,355.244,405.382,354.048,406.908z"/>
				<path style="fill:#FFF9ED;" d="M315.296,379.488c-0.655,0.836-1.227,1.738-1.703,2.688c-0.385,0.768-0.715,1.6-0.679,2.459
					c0.036,0.859,0.521,1.748,1.334,2.027c1.002,0.344,2.119-0.363,2.604-1.305c0.485-0.942,0.495-2.047,0.495-3.106
					c0-1.593,0.164-3.318-0.107-4.869C316.371,377.686,315.916,378.697,315.296,379.488z"/>
				<path style="fill:#FFF9ED;" d="M336.604,373.06c-0.655,0.836-1.227,1.738-1.703,2.688c-0.385,0.768-0.715,1.6-0.679,2.459
					c0.036,0.859,0.521,1.748,1.334,2.027c1.002,0.344,2.119-0.363,2.604-1.305c0.484-0.942,0.495-2.047,0.495-3.106
					c0-1.593,0.165-3.318-0.107-4.869C337.679,371.258,337.224,372.268,336.604,373.06z"/>
				<path style="fill:#FFF9ED;" d="M340.419,407.888c-0.655,0.836-1.227,1.738-1.703,2.688c-0.385,0.768-0.715,1.6-0.679,2.459
					c0.036,0.859,0.521,1.748,1.334,2.027c1.002,0.344,2.119-0.363,2.604-1.305c0.484-0.942,0.495-2.047,0.495-3.106
					c0-1.593,0.165-3.318-0.107-4.869C341.494,406.086,341.039,407.095,340.419,407.888z"/>
				<path style="fill:#FFF9ED;" d="M320.869,430.67c-0.655,0.836-1.227,1.738-1.703,2.688c-0.386,0.768-0.715,1.6-0.679,2.459
					c0.036,0.859,0.521,1.748,1.334,2.027c1.002,0.344,2.12-0.363,2.604-1.305c0.484-0.942,0.495-2.047,0.495-3.106
					c0-1.593,0.165-3.318-0.107-4.869C321.944,428.868,321.49,429.878,320.869,430.67z"/>
				<path style="fill:#FFF9ED;" d="M317.647,388.629c-0.961,1.226-1.799,2.548-2.497,3.941c-0.565,1.127-1.048,2.346-0.995,3.605
					c0.053,1.259,0.764,2.563,1.956,2.972c1.469,0.504,3.108-0.533,3.818-1.913c0.711-1.381,0.726-3.001,0.726-4.554
					c0-2.336,0.241-4.865-0.157-7.139C319.224,385.987,318.557,387.467,317.647,388.629z"/>
				<path style="fill:#FFF9ED;" d="M370.039,398.554c-0.655,0.836-1.227,1.738-1.703,2.688c-0.386,0.768-0.715,1.6-0.679,2.459
					c0.036,0.859,0.521,1.748,1.334,2.027c1.002,0.344,2.12-0.363,2.604-1.305c0.485-0.942,0.495-2.047,0.495-3.106
					c0-1.593,0.165-3.318-0.107-4.869C371.114,396.753,370.66,397.763,370.039,398.554z"/>
				<path style="fill:#FFF9ED;" d="M309.75,411.558c-0.655,0.836-1.227,1.738-1.703,2.688c-0.385,0.768-0.715,1.6-0.679,2.459
					c0.036,0.859,0.521,1.748,1.334,2.027c1.002,0.344,2.119-0.363,2.604-1.305c0.485-0.942,0.495-2.047,0.495-3.106
					c0-1.593,0.165-3.318-0.107-4.869C310.825,409.756,310.371,410.766,309.75,411.558z"/>
				<path style="fill:#FFF9ED;" d="M340.53,425.133c-0.655,0.836-1.227,1.738-1.703,2.688c-0.385,0.768-0.715,1.6-0.679,2.459
					c0.036,0.859,0.521,1.748,1.334,2.027c1.002,0.344,2.12-0.363,2.604-1.305c0.485-0.942,0.495-2.047,0.495-3.106
					c0-1.593,0.164-3.318-0.107-4.869C341.605,423.331,341.151,424.341,340.53,425.133z"/>
			</g>
			<g>
				<path style="fill:none;stroke:#F4CB1C;stroke-width:3;stroke-linecap:round;stroke-linejoin:round;stroke-miterlimit:10;" d="
					M561.869,424.65c1.418,2.234,2.836,4.468,4.254,6.702c2.693-3.337,5.387-6.675,8.08-10.012c2.094,2.836,4.188,5.672,6.282,8.508
					c2.98-2.646,5.636-5.657,7.888-8.945c2.495,3.307,4.99,6.615,7.485,9.922c2.046-2.929,4.093-5.859,6.139-8.788
					c2.321,1.738,4.421,3.772,6.232,6.037"/>
				<path style="fill:none;stroke:#FFF9ED;stroke-width:3;stroke-linecap:round;stroke-linejoin:round;stroke-miterlimit:10;" d="
					M510.691,399.058c1.418,2.234,2.836,4.468,4.254,6.702c2.693-3.337,5.387-6.675,8.08-10.012
					c2.094,2.836,4.188,5.672,6.282,8.508c2.98-2.646,5.636-5.657,7.888-8.945c2.495,3.307,4.99,6.615,7.485,9.922
					c2.047-2.929,4.093-5.859,6.139-8.788c2.321,1.738,4.421,3.772,6.231,6.037"/>
				<path style="fill:none;stroke:#FFF9ED;stroke-width:3;stroke-linecap:round;stroke-linejoin:round;stroke-miterlimit:10;" d="
					M89.597,75.656c1.418,2.234,2.836,4.468,4.254,6.702c2.693-3.337,5.387-6.675,8.08-10.012c2.094,2.836,4.188,5.672,6.282,8.508
					c2.98-2.646,5.636-5.657,7.888-8.945c2.495,3.307,4.99,6.615,7.485,9.922c2.046-2.929,4.093-5.859,6.139-8.788
					c2.321,1.738,4.421,3.772,6.231,6.037"/>
				<path style="fill:none;stroke:#F4CB1C;stroke-width:3;stroke-linecap:round;stroke-linejoin:round;stroke-miterlimit:10;" d="
					M722.714,149.54c1.418,2.234,2.836,4.468,4.254,6.702c2.693-3.337,5.387-6.675,8.081-10.012
					c2.094,2.836,4.188,5.672,6.282,8.508c2.98-2.646,5.636-5.657,7.888-8.945c2.495,3.307,4.99,6.615,7.485,9.922
					c2.046-2.929,4.093-5.859,6.139-8.788c2.321,1.738,4.421,3.772,6.231,6.037"/>
				<path style="fill:none;stroke:#F4CB1C;stroke-width:3;stroke-linecap:round;stroke-linejoin:round;stroke-miterlimit:10;" d="
					M551.423,27.659c1.418,2.234,2.836,4.468,4.254,6.702c2.693-3.337,5.387-6.675,8.08-10.012c2.094,2.836,4.188,5.672,6.282,8.508
					c2.98-2.646,5.636-5.657,7.888-8.945c2.495,3.307,4.99,6.615,7.485,9.922c2.046-2.929,4.093-5.858,6.139-8.788
					c2.321,1.738,4.421,3.772,6.232,6.037"/>
				<path style="fill:none;stroke:#F4CB1C;stroke-width:3;stroke-linecap:round;stroke-linejoin:round;stroke-miterlimit:10;" d="
					M75.828,298.455c1.418,2.234,2.836,4.468,4.254,6.702c2.693-3.337,5.387-6.675,8.08-10.012c2.094,2.836,4.188,5.672,6.282,8.508
					c2.98-2.646,5.636-5.657,7.889-8.945c2.495,3.307,4.99,6.615,7.485,9.922c2.046-2.929,4.093-5.859,6.139-8.788
					c2.321,1.738,4.421,3.772,6.231,6.037"/>
			</g>
			<g>
				<g>
					<path style="fill:#F4CB1C;" d="M194.776,28.447c-0.128,0.25-0.249,0.533-0.176,0.805c0.139,0.511,0.811,0.608,1.34,0.599
						c4.964-0.077,9.923-0.484,14.834-1.218c-1.724,0.257-5.051-8.66-8.357-8.621C199.756,20.044,195.899,26.25,194.776,28.447z"/>
					<path style="fill:#F4CB1C;" d="M207.78,42.92c-0.128,0.25-0.249,0.533-0.176,0.805c0.139,0.511,0.811,0.607,1.34,0.599
						c4.964-0.077,9.923-0.485,14.834-1.218c-1.724,0.257-5.051-8.66-8.357-8.621C212.761,34.517,208.904,40.723,207.78,42.92z"/>
					<path style="fill:#F4CB1C;" d="M230.331,30.242c-0.064,0.125-0.125,0.267-0.088,0.403c0.069,0.255,0.405,0.304,0.67,0.3
						c2.482-0.039,4.962-0.242,7.417-0.609c-0.862,0.129-2.526-4.33-4.178-4.311C232.821,26.04,230.893,29.143,230.331,30.242z"/>
					<path style="fill:#F4CB1C;" d="M166.481,40.365c-0.064,0.125-0.125,0.267-0.088,0.403c0.069,0.255,0.405,0.304,0.67,0.3
						c2.482-0.039,4.962-0.242,7.417-0.609c-0.862,0.129-2.526-4.33-4.178-4.311C168.971,36.164,167.043,39.267,166.481,40.365z"/>
					<path style="fill:#F4CB1C;" d="M189.027,54.045c-0.109,0.214-0.213,0.455-0.15,0.687c0.118,0.436,0.692,0.518,1.143,0.511
						c4.235-0.066,8.466-0.413,12.655-1.039c-1.471,0.22-4.31-7.388-7.129-7.355C193.276,46.876,189.985,52.171,189.027,54.045z"/>
				</g>
			</g>
		</g>
	</g>
</g>
</svg>
